<svg width="189" height="211" viewBox="0 0 189 211" fill="none" xmlns="http://www.w3.org/2000/svg">
<path d="M87.1009 28.9172C86.8582 29.1518 86.7219 29.4742 86.7219 29.8113C86.7219 30.1483 86.8582 30.4707 87.1009 30.7053C87.3429 30.94 87.6706 31.066 88.0076 31.0561L87.1009 28.9172ZM87.1009 28.9172C87.3429 28.6826 87.6706 28.5565 88.0076 28.5664L87.1009 28.9172ZM130.033 24.7696L129.972 24.7639L121.224 23.9409L120.93 23.9132L120.812 23.6423L117.313 15.5894L117.312 15.587C117.195 15.3129 116.924 15.1355 116.625 15.1374L116.62 15.1374C116.328 15.1365 116.064 15.3122 115.954 15.5807L115.95 15.5894L115.95 15.5893L112.452 23.6423L112.334 23.9132L112.04 23.9409L103.29 24.7639L103.28 24.6594L103.285 24.7644C102.986 24.7887 102.732 24.9885 102.638 25.2716C102.544 25.5546 102.629 25.8658 102.854 26.0622L102.855 26.0631L109.458 31.8671L109.681 32.0629L109.616 32.3523L107.714 40.8088L107.691 40.9139C107.627 41.205 107.742 41.5054 107.984 41.68C108.226 41.8551 108.549 41.8707 108.807 41.7198C108.807 41.7198 108.807 41.7197 108.807 41.7196L116.366 37.2487L116.62 37.0983L116.875 37.2484L124.455 41.7203L124.458 41.7223C124.568 41.7885 124.696 41.8242 124.827 41.8252C124.986 41.8254 125.14 41.7753 125.268 41.6824L125.269 41.6815C125.509 41.5081 125.621 41.2083 125.554 40.9216L125.553 40.9167L123.637 32.3517L123.572 32.0627L123.795 31.8671L130.395 26.0628C130.396 26.0624 130.396 26.062 130.397 26.0616C130.617 25.864 130.699 25.5556 130.608 25.2736L130.033 24.7696ZM130.033 24.7696C130.301 24.8199 130.522 25.012 130.608 25.2727L130.033 24.7696ZM103.289 17.5502L103.288 17.5489L95.8557 10.139C95.855 10.1383 95.8544 10.1377 95.8538 10.1371C95.5674 9.84286 95.5675 9.37409 95.854 9.07995C95.9933 8.9413 96.183 8.86298 96.3807 8.86298C96.5788 8.86298 96.7686 8.94169 96.9083 9.08159L96.9088 9.08212L104.336 16.4961L104.356 16.516C104.484 16.6541 104.555 16.8345 104.555 17.0226C104.555 17.2193 104.477 17.4085 104.336 17.549L104.335 17.5502C104.197 17.6884 104.009 17.7667 103.811 17.7667C103.615 17.7667 103.427 17.6887 103.289 17.5502ZM88.0076 30.5561H88.0002L87.9928 30.5563C87.7897 30.5623 87.5932 30.4862 87.449 30.3464L87.4484 30.3458C87.3034 30.2057 87.2219 30.0131 87.2219 29.8113C87.2219 29.6094 87.3034 29.4168 87.4484 29.2767L87.449 29.2761C87.5932 29.1363 87.7897 29.0602 87.9928 29.0662L88.0002 29.0664H88.0076H98.4198C98.8215 29.0822 99.1383 29.4115 99.1383 29.8113C99.1383 30.211 98.8215 30.5403 98.4198 30.5561H88.0076ZM145.782 29.2848C145.91 29.4124 145.986 29.5812 145.998 29.7593L145.998 29.8132C145.999 30.0093 145.921 30.1983 145.781 30.3371L145.781 30.3377C145.641 30.4774 145.451 30.5561 145.253 30.5561H134.836C134.435 30.5403 134.118 30.211 134.118 29.8113C134.118 29.4115 134.435 29.0822 134.836 29.0664H145.254C145.452 29.0664 145.642 29.1452 145.782 29.2848ZM136.336 9.08525C136.615 8.80974 137.055 8.79427 137.352 9.03882L137.399 9.08533C137.539 9.22507 137.618 9.41483 137.618 9.61118C137.618 9.80845 137.539 9.99817 137.399 10.1378L137.398 10.1383L129.971 17.5464C129.97 17.5467 129.97 17.5471 129.97 17.5474C129.826 17.6886 129.633 17.7676 129.431 17.7671L129.431 17.7671C129.128 17.7666 128.856 17.5844 128.74 17.3061L128.74 17.3058C128.625 17.0284 128.689 16.7081 128.902 16.4951L136.336 9.08586C136.336 9.08565 136.336 9.08545 136.336 9.08525ZM116.624 0.500026L116.625 0.500018C116.825 0.498641 117.016 0.576619 117.157 0.716545C117.299 0.857259 117.378 1.04764 117.378 1.24413V10.5501C117.362 10.9508 117.032 11.2699 116.627 11.2699C116.222 11.2699 115.892 10.9507 115.877 10.5505V1.24524C115.877 0.836203 116.21 0.501863 116.624 0.500026ZM109.128 32.2426L107.314 40.3075L102.525 26.4386L109.128 32.2426ZM107.607 95.5V50.4739H125.637V95.5H107.607ZM104.114 95.5H86.0772L86.078 61.2219H104.114V95.5ZM43 82.7125H61.0385V95.5H43V82.7125ZM82.5837 71.9657V95.4998H64.5406V71.9657H82.5837Z" fill="url(#paint0_linear_78_1046)" stroke="#6D95FC"/>
<path d="M69.1728 124.472L53.1088 163H41.9088L58.1648 125.688H38.2608V116.344H69.1728V124.472ZM106.495 125.816H86.5268V134.648C87.3801 133.709 88.5748 132.941 90.1108 132.344C91.6468 131.747 93.3108 131.448 95.1028 131.448C98.3028 131.448 100.948 132.173 103.039 133.624C105.172 135.075 106.729 136.952 107.711 139.256C108.692 141.56 109.183 144.056 109.183 146.744C109.183 151.736 107.775 155.704 104.959 158.648C102.143 161.549 98.1748 163 93.0548 163C89.6414 163 86.6761 162.424 84.1588 161.272C81.6414 160.077 79.7001 158.435 78.3348 156.344C76.9694 154.253 76.2228 151.843 76.0948 149.112H86.7828C87.0388 150.435 87.6574 151.544 88.6388 152.44C89.6201 153.293 90.9641 153.72 92.6708 153.72C94.6761 153.72 96.1694 153.08 97.1508 151.8C98.1321 150.52 98.6228 148.813 98.6228 146.68C98.6228 144.589 98.1108 142.989 97.0868 141.88C96.0628 140.771 94.5694 140.216 92.6068 140.216C91.1561 140.216 89.9614 140.579 89.0228 141.304C88.0841 141.987 87.4654 142.904 87.1667 144.056H76.6068V116.216H106.495V125.816ZM148.76 145.528H137.624V156.92H127.256V145.528H116.12V135.736H127.256V124.28H137.624V135.736H148.76V145.528Z" fill="white"/>
<path d="M20.0566 201.745H13.6726L12.4966 205H10.4806L15.7726 190.447H17.9776L23.2486 205H21.2326L20.0566 201.745ZM19.5106 200.191L16.8646 192.799L14.2186 200.191H19.5106ZM41.725 193.492L38.134 205H36.16L33.388 195.865L30.616 205H28.642L25.03 193.492H26.983L29.629 203.152L32.485 193.492H34.438L37.231 203.173L39.835 193.492H41.725ZM43.7475 199.204C43.7475 198.028 43.9855 196.999 44.4615 196.117C44.9375 195.221 45.5885 194.528 46.4145 194.038C47.2545 193.548 48.1855 193.303 49.2075 193.303C50.2155 193.303 51.0905 193.52 51.8325 193.954C52.5745 194.388 53.1275 194.934 53.4915 195.592V193.492H55.4235V205H53.4915V202.858C53.1135 203.53 52.5465 204.09 51.7905 204.538C51.0485 204.972 50.1805 205.189 49.1865 205.189C48.1645 205.189 47.2405 204.937 46.4145 204.433C45.5885 203.929 44.9375 203.222 44.4615 202.312C43.9855 201.402 43.7475 200.366 43.7475 199.204ZM53.4915 199.225C53.4915 198.357 53.3165 197.601 52.9665 196.957C52.6165 196.313 52.1405 195.823 51.5385 195.487C50.9505 195.137 50.2995 194.962 49.5855 194.962C48.8715 194.962 48.2205 195.13 47.6325 195.466C47.0445 195.802 46.5755 196.292 46.2255 196.936C45.8755 197.58 45.7005 198.336 45.7005 199.204C45.7005 200.086 45.8755 200.856 46.2255 201.514C46.5755 202.158 47.0445 202.655 47.6325 203.005C48.2205 203.341 48.8715 203.509 49.5855 203.509C50.2995 203.509 50.9505 203.341 51.5385 203.005C52.1405 202.655 52.6165 202.158 52.9665 201.514C53.3165 200.856 53.4915 200.093 53.4915 199.225ZM61.4039 195.361C61.7399 194.703 62.2159 194.192 62.8319 193.828C63.4619 193.464 64.2249 193.282 65.1209 193.282V195.256H64.6169C62.4749 195.256 61.4039 196.418 61.4039 198.742V205H59.4929V193.492H61.4039V195.361ZM67.4529 199.204C67.4529 198.028 67.6909 196.999 68.1669 196.117C68.6429 195.221 69.2939 194.528 70.1199 194.038C70.9599 193.548 71.8979 193.303 72.9339 193.303C73.8299 193.303 74.6629 193.513 75.4329 193.933C76.2029 194.339 76.7909 194.878 77.1969 195.55V189.46H79.1289V205H77.1969V202.837C76.8189 203.523 76.2589 204.09 75.5169 204.538C74.7749 204.972 73.9069 205.189 72.9129 205.189C71.8909 205.189 70.9599 204.937 70.1199 204.433C69.2939 203.929 68.6429 203.222 68.1669 202.312C67.6909 201.402 67.4529 200.366 67.4529 199.204ZM77.1969 199.225C77.1969 198.357 77.0219 197.601 76.6719 196.957C76.3219 196.313 75.8459 195.823 75.2439 195.487C74.6559 195.137 74.0049 194.962 73.2909 194.962C72.5769 194.962 71.9259 195.13 71.3379 195.466C70.7499 195.802 70.2809 196.292 69.9309 196.936C69.5809 197.58 69.4059 198.336 69.4059 199.204C69.4059 200.086 69.5809 200.856 69.9309 201.514C70.2809 202.158 70.7499 202.655 71.3379 203.005C71.9259 203.341 72.5769 203.509 73.2909 203.509C74.0049 203.509 74.6559 203.341 75.2439 203.005C75.8459 202.655 76.3219 202.158 76.6719 201.514C77.0219 200.856 77.1969 200.093 77.1969 199.225ZM108.033 190.363L103.791 205H101.649L98.2469 193.219L94.7189 205L92.5979 205.021L88.5029 190.363H90.5399L93.7319 202.774L97.2599 190.363H99.4019L102.762 202.732L105.975 190.363H108.033ZM111.951 191.623C111.587 191.623 111.279 191.497 111.027 191.245C110.775 190.993 110.649 190.685 110.649 190.321C110.649 189.957 110.775 189.649 111.027 189.397C111.279 189.145 111.587 189.019 111.951 189.019C112.301 189.019 112.595 189.145 112.833 189.397C113.085 189.649 113.211 189.957 113.211 190.321C113.211 190.685 113.085 190.993 112.833 191.245C112.595 191.497 112.301 191.623 111.951 191.623ZM112.875 193.492V205H110.964V193.492H112.875ZM122.579 193.282C123.979 193.282 125.113 193.709 125.981 194.563C126.849 195.403 127.283 196.621 127.283 198.217V205H125.393V198.49C125.393 197.342 125.106 196.467 124.532 195.865C123.958 195.249 123.174 194.941 122.18 194.941C121.172 194.941 120.367 195.256 119.765 195.886C119.177 196.516 118.883 197.433 118.883 198.637V205H116.972V193.492H118.883V195.13C119.261 194.542 119.772 194.087 120.416 193.765C121.074 193.443 121.795 193.282 122.579 193.282ZM136.852 193.282C138.252 193.282 139.386 193.709 140.254 194.563C141.122 195.403 141.556 196.621 141.556 198.217V205H139.666V198.49C139.666 197.342 139.379 196.467 138.805 195.865C138.231 195.249 137.447 194.941 136.453 194.941C135.445 194.941 134.64 195.256 134.038 195.886C133.45 196.516 133.156 197.433 133.156 198.637V205H131.245V193.492H133.156V195.13C133.534 194.542 134.045 194.087 134.689 193.765C135.347 193.443 136.068 193.282 136.852 193.282ZM146.504 191.623C146.14 191.623 145.832 191.497 145.58 191.245C145.328 190.993 145.202 190.685 145.202 190.321C145.202 189.957 145.328 189.649 145.58 189.397C145.832 189.145 146.14 189.019 146.504 189.019C146.854 189.019 147.148 189.145 147.386 189.397C147.638 189.649 147.764 189.957 147.764 190.321C147.764 190.685 147.638 190.993 147.386 191.245C147.148 191.497 146.854 191.623 146.504 191.623ZM147.428 193.492V205H145.517V193.492H147.428ZM157.132 193.282C158.532 193.282 159.666 193.709 160.534 194.563C161.402 195.403 161.836 196.621 161.836 198.217V205H159.946V198.49C159.946 197.342 159.659 196.467 159.085 195.865C158.511 195.249 157.727 194.941 156.733 194.941C155.725 194.941 154.92 195.256 154.318 195.886C153.73 196.516 153.436 197.433 153.436 198.637V205H151.525V193.492H153.436V195.13C153.814 194.542 154.325 194.087 154.969 193.765C155.627 193.443 156.348 193.282 157.132 193.282ZM170.544 193.303C171.538 193.303 172.406 193.52 173.148 193.954C173.904 194.388 174.464 194.934 174.828 195.592V193.492H176.76V205.252C176.76 206.302 176.536 207.233 176.088 208.045C175.64 208.871 174.996 209.515 174.156 209.977C173.33 210.439 172.364 210.67 171.258 210.67C169.746 210.67 168.486 210.313 167.478 209.599C166.47 208.885 165.875 207.912 165.693 206.68H167.583C167.793 207.38 168.227 207.94 168.885 208.36C169.543 208.794 170.334 209.011 171.258 209.011C172.308 209.011 173.162 208.682 173.82 208.024C174.492 207.366 174.828 206.442 174.828 205.252V202.837C174.45 203.509 173.89 204.069 173.148 204.517C172.406 204.965 171.538 205.189 170.544 205.189C169.522 205.189 168.591 204.937 167.751 204.433C166.925 203.929 166.274 203.222 165.798 202.312C165.322 201.402 165.084 200.366 165.084 199.204C165.084 198.028 165.322 196.999 165.798 196.117C166.274 195.221 166.925 194.528 167.751 194.038C168.591 193.548 169.522 193.303 170.544 193.303ZM174.828 199.225C174.828 198.357 174.653 197.601 174.303 196.957C173.953 196.313 173.477 195.823 172.875 195.487C172.287 195.137 171.636 194.962 170.922 194.962C170.208 194.962 169.557 195.13 168.969 195.466C168.381 195.802 167.912 196.292 167.562 196.936C167.212 197.58 167.037 198.336 167.037 199.204C167.037 200.086 167.212 200.856 167.562 201.514C167.912 202.158 168.381 202.655 168.969 203.005C169.557 203.341 170.208 203.509 170.922 203.509C171.636 203.509 172.287 203.341 172.875 203.005C173.477 202.655 173.953 202.158 174.303 201.514C174.653 200.856 174.828 200.093 174.828 199.225Z" fill="#6D95FC"/>
<defs>
<linearGradient id="paint0_linear_78_1046" x1="114" y1="62.5" x2="113.984" y2="48" gradientUnits="userSpaceOnUse">
<stop offset="0.63776" stop-color="#6D95FC"/>
<stop offset="1" stop-color="white"/>
</linearGradient>
</defs>
</svg>
