<svg width="202" height="203" viewBox="0 0 202 203" fill="none" xmlns="http://www.w3.org/2000/svg">
<path fill-rule="evenodd" clip-rule="evenodd" d="M69.5294 63.2835C69.5294 65.7033 67.5616 67.6718 65.1425 67.6718C62.7227 67.6718 60.7542 65.704 60.7542 63.2835C60.7542 60.8637 62.7234 58.8952 65.1425 58.8952C67.5616 58.8966 69.5294 60.8637 69.5294 63.2835ZM58.8144 63.2835C58.8144 66.7713 61.6525 69.6094 65.1411 69.6094C68.6289 69.6094 71.467 66.7713 71.467 63.2835C71.467 59.7956 68.6289 56.9569 65.1411 56.9569C61.6525 56.9583 58.8144 59.7963 58.8144 63.2835ZM141.245 63.2835C141.245 65.7033 139.277 67.6718 136.856 67.6718C134.439 67.6718 132.469 65.704 132.469 63.2835C132.469 60.8637 134.439 58.8952 136.856 58.8952C139.277 58.8966 141.245 60.8637 141.245 63.2835ZM130.53 63.2835C130.53 66.7713 133.368 69.6094 136.856 69.6094C140.346 69.6094 143.182 66.7713 143.182 63.2835C143.182 59.7956 140.346 56.9569 136.856 56.9569C133.369 56.9583 130.53 59.7963 130.53 63.2835ZM101 67.6718C98.5797 67.6718 96.6126 65.704 96.6126 63.2835C96.6126 60.8637 98.5804 58.8952 101 58.8952C103.419 58.8952 105.388 60.863 105.388 63.2835C105.388 65.704 103.419 67.6718 101 67.6718ZM101 56.9583C97.5116 56.9583 94.6736 59.7963 94.6736 63.2849C94.6736 66.7728 97.5116 69.6108 101 69.6108C104.488 69.6108 107.326 66.7728 107.326 63.2849C107.326 59.7963 104.488 56.9583 101 56.9583ZM146.564 91.2836H127.152V78.6675C127.152 76.6604 128.314 74.807 130.09 73.903C132.07 75.3199 134.398 76.0681 136.855 76.0681C139.315 76.0681 141.641 75.3199 143.619 73.903C145.398 74.8062 146.561 76.6604 146.561 78.6675L146.562 91.2836H146.564ZM143.846 71.8806C143.525 71.7571 143.16 71.8104 142.89 72.0266C141.159 73.4014 139.073 74.1298 136.856 74.1298C134.641 74.1298 132.554 73.4007 130.824 72.0266C130.554 71.8118 130.191 71.7571 129.869 71.8806C127.084 72.9642 125.214 75.6899 125.214 78.6663V92.2514C125.214 92.7868 125.647 93.2205 126.183 93.2205H147.532C148.066 93.2205 148.5 92.7854 148.5 92.2514V78.6677C148.501 75.6915 146.63 72.9643 143.846 71.8808L143.846 71.8806ZM110.707 91.2836H91.2964V78.6675C91.2964 76.6604 92.4586 74.807 94.2369 73.903C96.2167 75.3199 98.5423 76.0681 101.001 76.0681C103.46 76.0681 105.787 75.3199 107.765 73.903C109.543 74.8062 110.707 76.6604 110.707 78.6675L110.707 91.2836ZM107.989 71.8806C107.668 71.7571 107.304 71.8104 107.034 72.0266C105.303 73.4014 103.217 74.1298 101.001 74.1298C98.7853 74.1298 96.699 73.4007 94.9676 72.0266C94.6981 71.8118 94.3346 71.7571 94.0139 71.8806C91.2292 72.9642 89.3575 75.6899 89.3575 78.6663V92.2514C89.3575 92.7868 89.7912 93.2205 90.3267 93.2205H111.677C112.212 93.2205 112.646 92.7854 112.646 92.2514V78.6677C112.646 75.6915 110.775 72.9643 107.989 71.8808L107.989 71.8806ZM74.849 91.2836H55.4389V78.6675C55.4389 76.6604 56.601 74.807 58.3786 73.903C60.3584 75.3199 62.6848 76.0681 65.143 76.0681C67.6013 76.0681 69.9286 75.3199 71.9075 73.903C73.6851 74.8062 74.8472 76.6604 74.8472 78.6675L74.8479 91.2836H74.849ZM72.1317 71.8806C71.8103 71.7571 71.4474 71.8104 71.1773 72.0266C69.446 73.4014 67.3595 74.1298 65.144 74.1298C62.9278 74.1298 60.8421 73.4007 59.1108 72.0266C58.8406 71.8118 58.4778 71.7571 58.1564 71.8806C55.3717 72.9642 53.5 75.6899 53.5 78.6663V92.2514C53.5 92.7868 53.9351 93.2205 54.4706 93.2205H75.8174C76.3529 93.2205 76.7866 92.7854 76.7866 92.2514V78.6677C76.7873 75.6915 74.9163 72.9643 72.1309 71.8808L72.1317 71.8806ZM124.762 17.1643C125.183 17.1643 125.555 16.8927 125.686 16.4934L126.988 12.4876L128.288 16.4934C128.418 16.8927 128.79 17.1643 129.212 17.1643H133.424L130.015 19.6394C129.675 19.8857 129.533 20.3237 129.663 20.723L130.965 24.7288L127.557 22.2536C127.385 22.1322 127.186 22.0691 126.987 22.0691C126.787 22.0691 126.587 22.1308 126.416 22.2536L123.008 24.7288L124.311 20.723C124.441 20.3236 124.297 19.8857 123.958 19.6394L120.55 17.1643H124.762ZM116.996 16.9776L122.247 20.7932L120.242 26.9681C120.112 27.3675 120.253 27.8033 120.593 28.0517C120.933 28.298 121.394 28.298 121.733 28.0517L126.986 24.2361L132.238 28.0517C132.406 28.1766 132.607 28.2363 132.807 28.2363C133.007 28.2363 133.207 28.1752 133.377 28.0517C133.717 27.8033 133.858 27.3675 133.728 26.9681L131.723 20.7932L136.974 16.9776C137.314 16.7313 137.456 16.2934 137.327 15.8941C137.197 15.4947 136.825 15.2253 136.403 15.2253H129.912L127.905 9.05026C127.775 8.65094 127.405 8.38145 126.985 8.38145C126.564 8.38145 126.192 8.65094 126.061 9.05026L124.056 15.2253H117.562C117.144 15.2253 116.772 15.4947 116.641 15.8941C116.513 16.2934 116.655 16.7313 116.996 16.9776ZM98.7784 17.1643C99.1988 17.1643 99.5707 16.8927 99.7005 16.4934L101.001 12.4883L102.303 16.4941C102.433 16.8934 102.805 17.165 103.226 17.165H107.438L104.029 19.6401C103.689 19.8865 103.548 20.3244 103.677 20.7237L104.979 24.7295L101.57 22.2544C101.401 22.1316 101.201 22.0691 101.001 22.0691C100.801 22.0691 100.601 22.1309 100.432 22.2537L97.0223 24.7288L98.3248 20.723C98.4546 20.3237 98.3121 19.8857 97.9725 19.6394L94.5646 17.1643L98.7784 17.1643ZM91.0118 16.9776L96.2632 20.7932L94.2575 26.9681C94.1277 27.3675 94.2702 27.8033 94.6105 28.0517C94.9502 28.298 95.4098 28.298 95.7495 28.0517L101.001 24.2369L106.254 28.0524C106.424 28.1773 106.623 28.237 106.823 28.237C107.023 28.237 107.223 28.1759 107.393 28.0524C107.733 27.804 107.875 27.3682 107.746 26.9689L105.74 20.7939L110.991 16.9783C111.331 16.732 111.474 16.2941 111.344 15.8948C111.214 15.4955 110.842 15.226 110.422 15.226H103.929L101.923 9.05098C101.793 8.65166 101.421 8.38217 101.001 8.38217C100.582 8.38217 100.21 8.65166 100.079 9.05098L98.0737 15.226H91.5815C91.1625 15.226 90.7891 15.4955 90.6593 15.8948C90.5302 16.2934 90.6719 16.7313 91.0116 16.9776L91.0118 16.9776ZM72.7928 17.1643C73.2132 17.1643 73.5851 16.8927 73.715 16.4934L75.0175 12.4876L76.3193 16.4934C76.4491 16.8927 76.8211 17.1643 77.2414 17.1643H81.4542L78.0463 19.6394C77.7059 19.8857 77.5642 20.3237 77.6933 20.723L78.9958 24.7288L75.5879 22.2536C75.4174 22.1322 75.2181 22.0691 75.0181 22.0691C74.818 22.0691 74.618 22.1308 74.4482 22.2536L71.0403 24.7288L72.3421 20.723C72.4719 20.3236 72.3309 19.8857 71.9898 19.6394L68.5819 17.1643H72.7928ZM65.0275 16.9776L70.2803 20.7932L68.2746 26.9681C68.1448 27.3675 68.2859 27.8033 68.6269 28.0517C68.9673 28.298 69.4262 28.298 69.7673 28.0517L75.0187 24.2361L80.2701 28.0517C80.4399 28.1766 80.6399 28.2363 80.8399 28.2363C81.0399 28.2363 81.24 28.1752 81.4098 28.0517C81.7494 27.8033 81.8905 27.3675 81.7621 26.9681L79.7564 20.7932L85.0078 16.9776C85.3481 16.7313 85.4899 16.2934 85.3607 15.8941C85.2309 15.4947 84.859 15.2253 84.4372 15.2253H77.9457L75.94 9.05026C75.8101 8.65094 75.4382 8.38145 75.0178 8.38145C74.5975 8.38145 74.2255 8.65094 74.0957 9.05026L72.09 15.2253H65.5977C65.1774 15.2253 64.8068 15.4947 64.6756 15.8941C64.5458 16.2934 64.6875 16.7313 65.0272 16.9776H65.0275ZM60.0995 9.34506V27.2729C60.0995 30.9271 63.0737 33.9013 66.7272 33.9013H96.597C97.0097 33.9013 97.3781 34.1631 97.5142 34.5532L101.001 44.6218L104.489 34.554C104.625 34.1638 104.992 33.902 105.406 33.902H135.277C138.932 33.902 141.904 30.9278 141.904 27.2736V9.34506C141.904 5.69084 138.932 2.71877 135.277 2.71877H66.7274C63.0732 2.71737 60.0995 5.6894 60.0995 9.34506ZM66.7272 35.8409H95.9071L100.086 47.9003C100.222 48.2926 100.587 48.553 101.001 48.553C101.415 48.553 101.783 48.2912 101.917 47.9003L106.096 35.8409H135.276C139.998 35.8409 143.841 31.9978 143.841 27.2734V9.3456C143.841 4.6226 139.997 0.780273 135.276 0.780273H66.7257C62.0027 0.780273 58.1604 4.62332 58.1604 9.3456V27.2734C58.1618 31.9978 62.0042 35.8409 66.7272 35.8409Z" fill="url(#paint0_linear_78_1029)"/>
<path d="M54.1198 120.037H34.1518V128.869C35.0051 127.93 36.1998 127.162 37.7358 126.565C39.2718 125.967 40.9358 125.669 42.7278 125.669C45.9278 125.669 48.5731 126.394 50.6637 127.845C52.7971 129.295 54.3544 131.173 55.3358 133.477C56.3171 135.781 56.8078 138.277 56.8078 140.965C56.8078 145.957 55.3998 149.925 52.5838 152.869C49.7678 155.77 45.7998 157.221 40.6798 157.221C37.2664 157.221 34.3011 156.645 31.7838 155.493C29.2664 154.298 27.3251 152.655 25.9598 150.565C24.5944 148.474 23.8478 146.063 23.7198 143.333H34.4078C34.6638 144.655 35.2824 145.765 36.2638 146.661C37.2451 147.514 38.5891 147.941 40.2958 147.941C42.3011 147.941 43.7944 147.301 44.7758 146.021C45.7571 144.741 46.2478 143.034 46.2478 140.901C46.2478 138.81 45.7358 137.21 44.7118 136.101C43.6878 134.991 42.1944 134.437 40.2318 134.437C38.7811 134.437 37.5864 134.799 36.6478 135.525C35.7091 136.207 35.0904 137.125 34.7917 138.277H24.2318V110.437H54.1198V120.037ZM62.8488 133.221C62.8488 125.882 64.2568 120.101 67.0728 115.877C69.9314 111.653 74.5181 109.541 80.8328 109.541C87.1474 109.541 91.7128 111.653 94.5288 115.877C97.3874 120.101 98.8168 125.882 98.8168 133.221C98.8168 140.645 97.3874 146.469 94.5288 150.693C91.7128 154.917 87.1474 157.029 80.8328 157.029C74.5181 157.029 69.9314 154.917 67.0728 150.693C64.2568 146.469 62.8488 140.645 62.8488 133.221ZM88.0648 133.221C88.0648 128.911 87.5954 125.605 86.6568 123.301C85.7181 120.954 83.7768 119.781 80.8328 119.781C77.8888 119.781 75.9474 120.954 75.0088 123.301C74.0701 125.605 73.6008 128.911 73.6008 133.221C73.6008 136.122 73.7714 138.533 74.1128 140.453C74.4541 142.33 75.1368 143.866 76.1608 145.061C77.2274 146.213 78.7848 146.789 80.8328 146.789C82.8808 146.789 84.4168 146.213 85.4408 145.061C86.5074 143.866 87.2114 142.33 87.5528 140.453C87.8941 138.533 88.0648 136.122 88.0648 133.221ZM104.599 133.221C104.599 125.882 106.007 120.101 108.823 115.877C111.681 111.653 116.268 109.541 122.583 109.541C128.897 109.541 133.463 111.653 136.279 115.877C139.137 120.101 140.567 125.882 140.567 133.221C140.567 140.645 139.137 146.469 136.279 150.693C133.463 154.917 128.897 157.029 122.583 157.029C116.268 157.029 111.681 154.917 108.823 150.693C106.007 146.469 104.599 140.645 104.599 133.221ZM129.815 133.221C129.815 128.911 129.345 125.605 128.407 123.301C127.468 120.954 125.527 119.781 122.583 119.781C119.639 119.781 117.697 120.954 116.759 123.301C115.82 125.605 115.351 128.911 115.351 133.221C115.351 136.122 115.521 138.533 115.863 140.453C116.204 142.33 116.887 143.866 117.911 145.061C118.977 146.213 120.535 146.789 122.583 146.789C124.631 146.789 126.167 146.213 127.191 145.061C128.257 143.866 128.961 142.33 129.303 140.453C129.644 138.533 129.815 136.122 129.815 133.221ZM179.885 139.749H168.749V151.141H158.381V139.749H147.245V129.957H158.381V118.501H168.749V129.957H179.885V139.749Z" fill="white"/>
<path d="M13.1551 181.584V196.221H11.2441V189.585H3.78912V196.221H1.87812V181.584H3.78912V188.01H11.2441V181.584H13.1551ZM16.5442 190.425C16.5442 189.249 16.7822 188.22 17.2582 187.338C17.7342 186.442 18.3852 185.749 19.2112 185.259C20.0512 184.769 20.9822 184.524 22.0042 184.524C23.0122 184.524 23.8872 184.741 24.6292 185.175C25.3712 185.609 25.9242 186.155 26.2882 186.813V184.713H28.2202V196.221H26.2882V194.079C25.9102 194.751 25.3432 195.311 24.5872 195.759C23.8452 196.193 22.9772 196.41 21.9832 196.41C20.9612 196.41 20.0372 196.158 19.2112 195.654C18.3852 195.15 17.7342 194.443 17.2582 193.533C16.7822 192.623 16.5442 191.587 16.5442 190.425ZM26.2882 190.446C26.2882 189.578 26.1132 188.822 25.7632 188.178C25.4132 187.534 24.9372 187.044 24.3352 186.708C23.7472 186.358 23.0962 186.183 22.3822 186.183C21.6682 186.183 21.0172 186.351 20.4292 186.687C19.8412 187.023 19.3722 187.513 19.0222 188.157C18.6722 188.801 18.4972 189.557 18.4972 190.425C18.4972 191.307 18.6722 192.077 19.0222 192.735C19.3722 193.379 19.8412 193.876 20.4292 194.226C21.0172 194.562 21.6682 194.73 22.3822 194.73C23.0962 194.73 23.7472 194.562 24.3352 194.226C24.9372 193.876 25.4132 193.379 25.7632 192.735C26.1132 192.077 26.2882 191.314 26.2882 190.446ZM34.2006 186.834C34.5786 186.176 35.1386 185.63 35.8806 185.196C36.6366 184.748 37.5116 184.524 38.5056 184.524C39.5276 184.524 40.4516 184.769 41.2776 185.259C42.1176 185.749 42.7756 186.442 43.2516 187.338C43.7276 188.22 43.9656 189.249 43.9656 190.425C43.9656 191.587 43.7276 192.623 43.2516 193.533C42.7756 194.443 42.1176 195.15 41.2776 195.654C40.4516 196.158 39.5276 196.41 38.5056 196.41C37.5256 196.41 36.6576 196.193 35.9016 195.759C35.1596 195.311 34.5926 194.758 34.2006 194.1V201.681H32.2896V184.713H34.2006V186.834ZM42.0126 190.425C42.0126 189.557 41.8376 188.801 41.4876 188.157C41.1376 187.513 40.6616 187.023 40.0596 186.687C39.4716 186.351 38.8206 186.183 38.1066 186.183C37.4066 186.183 36.7556 186.358 36.1536 186.708C35.5656 187.044 35.0896 187.541 34.7256 188.199C34.3756 188.843 34.2006 189.592 34.2006 190.446C34.2006 191.314 34.3756 192.077 34.7256 192.735C35.0896 193.379 35.5656 193.876 36.1536 194.226C36.7556 194.562 37.4066 194.73 38.1066 194.73C38.8206 194.73 39.4716 194.562 40.0596 194.226C40.6616 193.876 41.1376 193.379 41.4876 192.735C41.8376 192.077 42.0126 191.307 42.0126 190.425ZM49.232 186.834C49.61 186.176 50.17 185.63 50.912 185.196C51.668 184.748 52.543 184.524 53.537 184.524C54.559 184.524 55.483 184.769 56.309 185.259C57.149 185.749 57.807 186.442 58.283 187.338C58.759 188.22 58.997 189.249 58.997 190.425C58.997 191.587 58.759 192.623 58.283 193.533C57.807 194.443 57.149 195.15 56.309 195.654C55.483 196.158 54.559 196.41 53.537 196.41C52.557 196.41 51.689 196.193 50.933 195.759C50.191 195.311 49.624 194.758 49.232 194.1V201.681H47.321V184.713H49.232V186.834ZM57.044 190.425C57.044 189.557 56.869 188.801 56.519 188.157C56.169 187.513 55.693 187.023 55.091 186.687C54.503 186.351 53.852 186.183 53.138 186.183C52.438 186.183 51.787 186.358 51.185 186.708C50.597 187.044 50.121 187.541 49.757 188.199C49.407 188.843 49.232 189.592 49.232 190.446C49.232 191.314 49.407 192.077 49.757 192.735C50.121 193.379 50.597 193.876 51.185 194.226C51.787 194.562 52.438 194.73 53.138 194.73C53.852 194.73 54.503 194.562 55.091 194.226C55.693 193.876 56.169 193.379 56.519 192.735C56.869 192.077 57.044 191.307 57.044 190.425ZM72.2644 184.713L65.3344 201.639H63.3604L65.6284 196.095L60.9874 184.713H63.1084L66.7204 194.037L70.2904 184.713H72.2644ZM80.75 188.892C80.75 187.464 81.072 186.183 81.716 185.049C82.36 183.901 83.235 183.005 84.341 182.361C85.461 181.717 86.7 181.395 88.058 181.395C89.654 181.395 91.047 181.78 92.237 182.55C93.427 183.32 94.295 184.412 94.841 185.826H92.552C92.146 184.944 91.558 184.265 90.788 183.789C90.032 183.313 89.122 183.075 88.058 183.075C87.036 183.075 86.119 183.313 85.307 183.789C84.495 184.265 83.858 184.944 83.396 185.826C82.934 186.694 82.703 187.716 82.703 188.892C82.703 190.054 82.934 191.076 83.396 191.958C83.858 192.826 84.495 193.498 85.307 193.974C86.119 194.45 87.036 194.688 88.058 194.688C89.122 194.688 90.032 194.457 90.788 193.995C91.558 193.519 92.146 192.84 92.552 191.958H94.841C94.295 193.358 93.427 194.443 92.237 195.213C91.047 195.969 89.654 196.347 88.058 196.347C86.7 196.347 85.461 196.032 84.341 195.402C83.235 194.758 82.36 193.869 81.716 192.735C81.072 191.601 80.75 190.32 80.75 188.892ZM108.732 184.713V196.221H106.821V194.52C106.457 195.108 105.946 195.57 105.288 195.906C104.644 196.228 103.93 196.389 103.146 196.389C102.25 196.389 101.445 196.207 100.731 195.843C100.017 195.465 99.4497 194.905 99.0297 194.163C98.6237 193.421 98.4207 192.518 98.4207 191.454V184.713H100.311V191.202C100.311 192.336 100.598 193.211 101.172 193.827C101.746 194.429 102.53 194.73 103.524 194.73C104.546 194.73 105.351 194.415 105.939 193.785C106.527 193.155 106.821 192.238 106.821 191.034V184.713H108.732ZM116.872 196.41C115.99 196.41 115.199 196.263 114.499 195.969C113.799 195.661 113.246 195.241 112.84 194.709C112.434 194.163 112.21 193.54 112.168 192.84H114.142C114.198 193.414 114.464 193.883 114.94 194.247C115.43 194.611 116.067 194.793 116.851 194.793C117.579 194.793 118.153 194.632 118.573 194.31C118.993 193.988 119.203 193.582 119.203 193.092C119.203 192.588 118.979 192.217 118.531 191.979C118.083 191.727 117.39 191.482 116.452 191.244C115.598 191.02 114.898 190.796 114.352 190.572C113.82 190.334 113.358 189.991 112.966 189.543C112.588 189.081 112.399 188.479 112.399 187.737C112.399 187.149 112.574 186.61 112.924 186.12C113.274 185.63 113.771 185.245 114.415 184.965C115.059 184.671 115.794 184.524 116.62 184.524C117.894 184.524 118.923 184.846 119.707 185.49C120.491 186.134 120.911 187.016 120.967 188.136H119.056C119.014 187.534 118.769 187.051 118.321 186.687C117.887 186.323 117.299 186.141 116.557 186.141C115.871 186.141 115.325 186.288 114.919 186.582C114.513 186.876 114.31 187.261 114.31 187.737C114.31 188.115 114.429 188.43 114.667 188.682C114.919 188.92 115.227 189.116 115.591 189.27C115.969 189.41 116.487 189.571 117.145 189.753C117.971 189.977 118.643 190.201 119.161 190.425C119.679 190.635 120.12 190.957 120.484 191.391C120.862 191.825 121.058 192.392 121.072 193.092C121.072 193.722 120.897 194.289 120.547 194.793C120.197 195.297 119.7 195.696 119.056 195.99C118.426 196.27 117.698 196.41 116.872 196.41ZM126.941 186.288V193.071C126.941 193.631 127.06 194.03 127.298 194.268C127.536 194.492 127.949 194.604 128.537 194.604H129.944V196.221H128.222C127.158 196.221 126.36 195.976 125.828 195.486C125.296 194.996 125.03 194.191 125.03 193.071V186.288H123.539V184.713H125.03V181.815H126.941V184.713H129.944V186.288H126.941ZM138.118 196.41C137.04 196.41 136.06 196.165 135.178 195.675C134.31 195.185 133.624 194.492 133.12 193.596C132.63 192.686 132.385 191.636 132.385 190.446C132.385 189.27 132.637 188.234 133.141 187.338C133.659 186.428 134.359 185.735 135.241 185.259C136.123 184.769 137.11 184.524 138.202 184.524C139.294 184.524 140.281 184.769 141.163 185.259C142.045 185.735 142.738 186.421 143.242 187.317C143.76 188.213 144.019 189.256 144.019 190.446C144.019 191.636 143.753 192.686 143.221 193.596C142.703 194.492 141.996 195.185 141.1 195.675C140.204 196.165 139.21 196.41 138.118 196.41ZM138.118 194.73C138.804 194.73 139.448 194.569 140.05 194.247C140.652 193.925 141.135 193.442 141.499 192.798C141.877 192.154 142.066 191.37 142.066 190.446C142.066 189.522 141.884 188.738 141.52 188.094C141.156 187.45 140.68 186.974 140.092 186.666C139.504 186.344 138.867 186.183 138.181 186.183C137.481 186.183 136.837 186.344 136.249 186.666C135.675 186.974 135.213 187.45 134.863 188.094C134.513 188.738 134.338 189.522 134.338 190.446C134.338 191.384 134.506 192.175 134.842 192.819C135.192 193.463 135.654 193.946 136.228 194.268C136.802 194.576 137.432 194.73 138.118 194.73ZM161.211 184.503C162.107 184.503 162.905 184.692 163.605 185.07C164.305 185.434 164.858 185.987 165.264 186.729C165.67 187.471 165.873 188.374 165.873 189.438V196.221H163.983V189.711C163.983 188.563 163.696 187.688 163.122 187.086C162.562 186.47 161.799 186.162 160.833 186.162C159.839 186.162 159.048 186.484 158.46 187.128C157.872 187.758 157.578 188.675 157.578 189.879V196.221H155.688V189.711C155.688 188.563 155.401 187.688 154.827 187.086C154.267 186.47 153.504 186.162 152.538 186.162C151.544 186.162 150.753 186.484 150.165 187.128C149.577 187.758 149.283 188.675 149.283 189.879V196.221H147.372V184.713H149.283V186.372C149.661 185.77 150.165 185.308 150.795 184.986C151.439 184.664 152.146 184.503 152.916 184.503C153.882 184.503 154.736 184.72 155.478 185.154C156.22 185.588 156.773 186.225 157.137 187.065C157.459 186.253 157.991 185.623 158.733 185.175C159.475 184.727 160.301 184.503 161.211 184.503ZM180.348 190.026C180.348 190.39 180.327 190.775 180.285 191.181H171.087C171.157 192.315 171.542 193.204 172.242 193.848C172.956 194.478 173.817 194.793 174.825 194.793C175.651 194.793 176.337 194.604 176.883 194.226C177.443 193.834 177.835 193.316 178.059 192.672H180.117C179.809 193.778 179.193 194.681 178.269 195.381C177.345 196.067 176.197 196.41 174.825 196.41C173.733 196.41 172.753 196.165 171.885 195.675C171.031 195.185 170.359 194.492 169.869 193.596C169.379 192.686 169.134 191.636 169.134 190.446C169.134 189.256 169.372 188.213 169.848 187.317C170.324 186.421 170.989 185.735 171.843 185.259C172.711 184.769 173.705 184.524 174.825 184.524C175.917 184.524 176.883 184.762 177.723 185.238C178.563 185.714 179.207 186.372 179.655 187.212C180.117 188.038 180.348 188.976 180.348 190.026ZM178.374 189.627C178.374 188.899 178.213 188.276 177.891 187.758C177.569 187.226 177.128 186.827 176.568 186.561C176.022 186.281 175.413 186.141 174.741 186.141C173.775 186.141 172.949 186.449 172.263 187.065C171.591 187.681 171.206 188.535 171.108 189.627H178.374ZM185.621 186.582C185.957 185.924 186.433 185.413 187.049 185.049C187.679 184.685 188.442 184.503 189.338 184.503V186.477H188.834C186.692 186.477 185.621 187.639 185.621 189.963V196.221H183.71V184.713H185.621V186.582ZM196.458 196.41C195.576 196.41 194.785 196.263 194.085 195.969C193.385 195.661 192.832 195.241 192.426 194.709C192.02 194.163 191.796 193.54 191.754 192.84H193.728C193.784 193.414 194.05 193.883 194.526 194.247C195.016 194.611 195.653 194.793 196.437 194.793C197.165 194.793 197.739 194.632 198.159 194.31C198.579 193.988 198.789 193.582 198.789 193.092C198.789 192.588 198.565 192.217 198.117 191.979C197.669 191.727 196.976 191.482 196.038 191.244C195.184 191.02 194.484 190.796 193.938 190.572C193.406 190.334 192.944 189.991 192.552 189.543C192.174 189.081 191.985 188.479 191.985 187.737C191.985 187.149 192.16 186.61 192.51 186.12C192.86 185.63 193.357 185.245 194.001 184.965C194.645 184.671 195.38 184.524 196.206 184.524C197.48 184.524 198.509 184.846 199.293 185.49C200.077 186.134 200.497 187.016 200.553 188.136H198.642C198.6 187.534 198.355 187.051 197.907 186.687C197.473 186.323 196.885 186.141 196.143 186.141C195.457 186.141 194.911 186.288 194.505 186.582C194.099 186.876 193.896 187.261 193.896 187.737C193.896 188.115 194.015 188.43 194.253 188.682C194.505 188.92 194.813 189.116 195.177 189.27C195.555 189.41 196.073 189.571 196.731 189.753C197.557 189.977 198.229 190.201 198.747 190.425C199.265 190.635 199.706 190.957 200.07 191.391C200.448 191.825 200.644 192.392 200.658 193.092C200.658 193.722 200.483 194.289 200.133 194.793C199.783 195.297 199.286 195.696 198.642 195.99C198.012 196.27 197.284 196.41 196.458 196.41Z" fill="#6D95FC"/>
<defs>
<linearGradient id="paint0_linear_78_1029" x1="101" y1="0.780273" x2="101" y2="93.2205" gradientUnits="userSpaceOnUse">
<stop offset="0.452091" stop-color="#6D95FC"/>
<stop offset="0.64115" stop-color="white"/>
</linearGradient>
</defs>
</svg>
