<svg width="364" height="35" viewBox="0 0 364 35" fill="none" xmlns="http://www.w3.org/2000/svg">
<path d="M264.217 18H361.717" stroke="white" stroke-width="3" stroke-linecap="round"/>
<path d="M2.2168 18H99.7168" stroke="white" stroke-width="3" stroke-linecap="round"/>
<path d="M122.449 23.147C121.091 23.147 119.838 22.832 118.69 22.202C117.556 21.558 116.653 20.669 115.981 19.535C115.323 18.387 114.994 17.099 114.994 15.671C114.994 14.243 115.323 12.962 115.981 11.828C116.653 10.694 117.556 9.812 118.69 9.182C119.838 8.538 121.091 8.216 122.449 8.216C123.821 8.216 125.074 8.538 126.208 9.182C127.356 9.812 128.259 10.694 128.917 11.828C129.575 12.962 129.904 14.243 129.904 15.671C129.904 17.099 129.575 18.387 128.917 19.535C128.259 20.669 127.356 21.558 126.208 22.202C125.074 22.832 123.821 23.147 122.449 23.147ZM122.449 21.068C123.415 21.068 124.276 20.851 125.032 20.417C125.788 19.969 126.376 19.339 126.796 18.527C127.23 17.701 127.447 16.749 127.447 15.671C127.447 14.593 127.23 13.648 126.796 12.836C126.376 12.024 125.788 11.401 125.032 10.967C124.276 10.533 123.415 10.316 122.449 10.316C121.483 10.316 120.622 10.533 119.866 10.967C119.11 11.401 118.515 12.024 118.081 12.836C117.661 13.648 117.451 14.593 117.451 15.671C117.451 16.749 117.661 17.701 118.081 18.527C118.515 19.339 119.11 19.969 119.866 20.417C120.622 20.851 121.483 21.068 122.449 21.068ZM137.678 8.405V17.708C137.678 18.814 137.965 19.647 138.539 20.207C139.127 20.767 139.939 21.047 140.975 21.047C142.025 21.047 142.837 20.767 143.411 20.207C143.999 19.647 144.293 18.814 144.293 17.708V8.405H146.687V17.666C146.687 18.856 146.428 19.864 145.91 20.69C145.392 21.516 144.699 22.132 143.831 22.538C142.963 22.944 142.004 23.147 140.954 23.147C139.904 23.147 138.945 22.944 138.077 22.538C137.223 22.132 136.544 21.516 136.04 20.69C135.536 19.864 135.284 18.856 135.284 17.666V8.405H137.678ZM160.43 23L157.07 17.162H155.243V23H152.849V8.405H157.889C159.009 8.405 159.954 8.601 160.724 8.993C161.508 9.385 162.089 9.91 162.467 10.568C162.859 11.226 163.055 11.961 163.055 12.773C163.055 13.725 162.775 14.593 162.215 15.377C161.669 16.147 160.822 16.672 159.674 16.952L163.286 23H160.43ZM155.243 15.251H157.889C158.785 15.251 159.457 15.027 159.905 14.579C160.367 14.131 160.598 13.529 160.598 12.773C160.598 12.017 160.374 11.429 159.926 11.009C159.478 10.575 158.799 10.358 157.889 10.358H155.243V15.251ZM196.667 8.405L192.341 23H189.632L186.566 11.954L183.311 23L180.623 23.021L176.486 8.405H179.027L182.051 20.291L185.327 8.405H188.015L191.06 20.228L194.105 8.405H196.667ZM208.344 23.147C206.986 23.147 205.733 22.832 204.585 22.202C203.451 21.558 202.548 20.669 201.876 19.535C201.218 18.387 200.889 17.099 200.889 15.671C200.889 14.243 201.218 12.962 201.876 11.828C202.548 10.694 203.451 9.812 204.585 9.182C205.733 8.538 206.986 8.216 208.344 8.216C209.716 8.216 210.969 8.538 212.103 9.182C213.251 9.812 214.154 10.694 214.812 11.828C215.47 12.962 215.799 14.243 215.799 15.671C215.799 17.099 215.47 18.387 214.812 19.535C214.154 20.669 213.251 21.558 212.103 22.202C210.969 22.832 209.716 23.147 208.344 23.147ZM208.344 21.068C209.31 21.068 210.171 20.851 210.927 20.417C211.683 19.969 212.271 19.339 212.691 18.527C213.125 17.701 213.342 16.749 213.342 15.671C213.342 14.593 213.125 13.648 212.691 12.836C212.271 12.024 211.683 11.401 210.927 10.967C210.171 10.533 209.31 10.316 208.344 10.316C207.378 10.316 206.517 10.533 205.761 10.967C205.005 11.401 204.41 12.024 203.976 12.836C203.556 13.648 203.346 14.593 203.346 15.671C203.346 16.749 203.556 17.701 203.976 18.527C204.41 19.339 205.005 19.969 205.761 20.417C206.517 20.851 207.378 21.068 208.344 21.068ZM228.78 23L225.42 17.162H223.593V23H221.199V8.405H226.239C227.359 8.405 228.304 8.601 229.074 8.993C229.858 9.385 230.439 9.91 230.817 10.568C231.209 11.226 231.405 11.961 231.405 12.773C231.405 13.725 231.125 14.593 230.565 15.377C230.019 16.147 229.172 16.672 228.024 16.952L231.636 23H228.78ZM223.593 15.251H226.239C227.135 15.251 227.807 15.027 228.255 14.579C228.717 14.131 228.948 13.529 228.948 12.773C228.948 12.017 228.724 11.429 228.276 11.009C227.828 10.575 227.149 10.358 226.239 10.358H223.593V15.251ZM245.556 23L239.907 16.469V23H237.513V8.405H239.907V15.062L245.577 8.405H248.58L242.238 15.713L248.685 23H245.556Z" fill="#6D95FC"/>
</svg>
