<?xml version="1.0" standalone="no"?>
<!DOCTYPE svg PUBLIC "-//W3C//DTD SVG 1.0//EN" "http://www.w3.org/TR/2001/REC-SVG-20010904/DTD/svg10.dtd">
<svg xmlns="http://www.w3.org/2000/svg" xmlns:xlink="http://www.w3.org/1999/xlink" id="body_1" width="100" height="100">

<g transform="matrix(1 0 0 1 0 0)">
    <path d="M100 50C 100.00001 63.80712 95.118454 75.59223 85.35534 85.35534C 75.59223 95.118454 63.80712 100.00001 50 100C 36.192883 100.00001 24.407768 95.118454 14.644661 85.35534C 4.8815536 75.59223 0 63.80712 0 50C 0 36.192883 4.8815536 24.407768 14.644661 14.644661C 24.407768 4.8815536 36.192883 0 50 0C 63.80712 0 75.59223 4.8815536 85.35534 14.644661C 95.118454 24.407768 100.00001 36.192883 100 50C 100.00001 50.581837 99.98985 51.163494 99.96954 51.744976" stroke="none" fill="none" />
</g>
</svg>