<svg width="189" height="189" viewBox="0 0 189 189" fill="none" xmlns="http://www.w3.org/2000/svg">
<path d="M106.543 45.2444C105.828 44.5291 104.699 44.5291 103.983 45.2067L90.9957 58.0062L84.8218 51.7571C84.1066 51.0419 82.9772 51.0419 82.2619 51.7195C81.5467 52.4347 81.5467 53.5641 82.2243 54.2793L90.9203 63.126L106.505 47.7667C107.258 47.1267 107.258 45.9597 106.543 45.2445L106.543 45.2444Z" fill="#6D95FC"/>
<path d="M98.5352 13.8691L98.5352 13.8691C97.366 14.998 95.8872 15.6688 94.3382 15.628C92.7352 15.6061 91.2229 14.8386 90.1225 13.713C89.0216 12.5868 88.2935 11.0616 88.3144 9.47478L88.3144 9.46871L88.3145 9.46871C88.3967 6.22245 91.1793 3.52285 94.4233 3.52274L98.5352 13.8691ZM98.5352 13.8691L98.5415 13.8629M98.5352 13.8691L98.5415 13.8629M98.5415 13.8629C99.7074 12.6969 100.457 11.1449 100.457 9.59423C100.457 8.03114 99.8398 6.51105 98.692 5.36324C97.5555 4.22674 96.0394 3.5228 94.4235 3.52274L98.5415 13.8629ZM103.109 9.62414L103.109 9.62414V9.63195C103.109 11.8539 102.12 14.0622 100.4 15.7477C98.7527 17.3223 96.5781 18.242 94.461 18.242H94.3142C89.6576 18.1687 85.6292 14.0276 85.7001 9.41368L85.7001 9.41352C85.7714 4.68342 89.6861 0.871094 94.4234 0.871094H94.4947C96.7701 0.907692 98.9396 1.83193 100.579 3.50667L100.579 3.50669L100.582 3.51049C102.259 5.18716 103.144 7.3544 103.109 9.62414Z" fill="white" stroke="black"/>
<path d="M108.727 37.104H108.705C107.968 37.0927 107.376 36.5209 107.345 35.7873V28.7951V28.7335L107.33 28.6738C107.295 28.5356 107.215 28.411 107.139 28.3156C107.055 28.2088 106.942 28.0954 106.799 27.9811C106.513 27.7519 106.093 27.5099 105.502 27.306L105.5 27.3053L105.339 27.7786L105.5 27.3053L105.5 27.3053L105.499 27.3051L105.497 27.3044L105.49 27.3018L105.46 27.2916L105.344 27.2522L104.915 27.1068C104.552 26.9838 104.047 26.8131 103.479 26.6224C102.345 26.2411 100.959 25.779 99.9577 25.4579L99.6672 25.3647L99.4515 25.5804L94.4595 30.5724L89.4675 25.5804L89.2517 25.3647L88.9612 25.4579C87.96 25.779 86.5737 26.2412 85.4395 26.6224C84.872 26.8131 84.3669 26.9838 84.0037 27.1069L83.5752 27.2522L83.4593 27.2916L83.4292 27.3018L83.4215 27.3044L83.4204 27.3048C82.2212 27.7049 81.6567 28.3327 81.5793 28.8749L81.5743 28.9101V28.9456V35.797C81.5743 36.4997 80.9699 37.104 80.2673 37.104C79.5578 37.104 78.9603 36.5305 78.9603 35.797V29.0585V29.0512L78.9601 29.0439C78.9286 27.9702 79.5563 25.8447 82.6089 24.8272L82.6089 24.8272L82.6109 24.8265L82.4508 24.3528L82.611 24.8265L82.6111 24.8264L82.6119 24.8262L82.6148 24.8252L82.6262 24.8213L82.6712 24.8061L82.843 24.7481L83.4664 24.5378C83.988 24.362 84.6971 24.1233 85.4473 23.8716C86.9506 23.3674 88.6109 22.814 89.264 22.6088L89.264 22.6088L89.2671 22.6078L90.0305 22.3624L94.1438 26.4757L94.4973 26.8293L94.8509 26.4757L98.9642 22.3624L99.7276 22.6078L99.7307 22.6088C100.384 22.814 102.044 23.3674 103.547 23.8716C104.298 24.1233 105.007 24.362 105.528 24.5378L106.152 24.7481L106.323 24.8061L106.368 24.8213L106.38 24.8252L106.383 24.8262L106.384 24.8264L106.384 24.8265L106.544 24.3528L106.384 24.8265L106.386 24.8272C109.448 25.8478 110.097 27.9761 110.035 29.0292L110.034 29.0438V29.0585V35.797C110.034 36.5065 109.461 37.104 108.727 37.104Z" fill="white" stroke="black"/>
<path d="M69.6212 65.8949L69.6211 65.8949C68.4506 67.025 66.9339 67.6946 65.4239 67.6538C63.821 67.6319 62.3088 66.8644 61.2085 65.7388C60.1076 64.6127 59.3795 63.0876 59.4003 61.5009L69.6212 65.8949ZM69.6212 65.8949L69.6274 65.8887M69.6212 65.8949L69.6274 65.8887M69.6274 65.8887C70.7917 64.7243 71.541 63.1752 71.5431 61.6266C71.5829 60.0433 70.914 58.5654 69.7843 57.3953L69.7843 57.3953M69.6274 65.8887L69.7843 57.3953M69.7843 57.3953L69.7781 57.3891M69.7843 57.3953L69.7781 57.3891M69.7781 57.3891C68.643 56.2539 67.1272 55.5486 65.5471 55.5486H65.5095C62.2315 55.5486 59.4417 58.246 59.4003 61.5006L69.7781 57.3891ZM56.7861 61.4772L56.7861 61.477C56.8573 56.7469 60.772 52.9346 65.5093 52.9346H65.5807C67.8561 52.9712 70.0256 53.8954 71.6647 55.5701L71.6646 55.5702L71.6685 55.574C73.3451 57.2506 74.2303 59.4179 74.1948 61.6876L74.1948 61.6876V61.6954C74.1948 63.9174 73.2064 66.1257 71.486 67.8111C69.8387 69.3858 67.6642 70.3055 65.547 70.3055H65.4022C60.74 70.1956 56.7152 66.0872 56.7861 61.4772Z" fill="white" stroke="black"/>
<path d="M79.8162 89.1294H79.7929C79.0638 89.1179 78.5087 88.5552 78.5087 87.8226V80.8205V80.7589L78.4938 80.6992C78.4593 80.561 78.3788 80.4364 78.3034 80.341C78.219 80.2342 78.1063 80.1208 77.9634 80.0065C77.6769 79.7773 77.2574 79.5353 76.6659 79.3313L76.6641 79.3307L76.5029 79.804L76.664 79.3307L76.6639 79.3307L76.6634 79.3305L76.6614 79.3298L76.6538 79.3272L76.6237 79.317L76.5078 79.2776L76.0793 79.1322C75.7161 79.0092 75.211 78.8385 74.6435 78.6477C73.5093 78.2665 72.123 77.8044 71.1218 77.4833L70.8313 77.3901L70.6155 77.6058L65.6235 82.5978L60.6315 77.6058L60.4158 77.3901L60.1252 77.4833C59.124 77.8044 57.7377 78.2665 56.6035 78.6478C56.036 78.8385 55.531 79.0092 55.1678 79.1322L54.7393 79.2776L54.6234 79.317L54.5933 79.3272L54.5856 79.3298L54.5845 79.3302C53.3852 79.7303 52.8208 80.3581 52.7433 80.9003L52.7383 80.9355V80.971V87.8224C52.7383 88.525 52.134 89.1294 51.4313 89.1294C50.7219 89.1294 50.1244 88.5559 50.1244 87.8224V81.0839V81.0766L50.1241 81.0693C50.0927 79.9956 50.7204 77.8701 53.773 76.8526L53.773 76.8526L53.776 76.8515L53.6149 76.3782L53.776 76.8515L53.7762 76.8515L53.7769 76.8512L53.7798 76.8502L53.7912 76.8464L53.8358 76.8312L54.0064 76.7732L54.6255 76.5629C55.1436 76.3871 55.848 76.1484 56.5935 75.8967C58.0875 75.3924 59.7378 74.8393 60.3904 74.6342L60.3904 74.6342L60.3935 74.6332L61.1569 74.3878L65.2701 78.5011L65.6252 78.8562L65.9788 78.4995L70.0544 74.3883L70.8164 74.6332L70.8195 74.6342C71.4727 74.8394 73.133 75.3928 74.6362 75.897C75.3865 76.1487 76.0956 76.3874 76.6172 76.5632L77.2405 76.7735L77.4123 76.8315L77.4573 76.8467L77.4687 76.8506L77.4716 76.8516L77.4724 76.8518L77.4725 76.8519L77.6327 76.3782L77.4726 76.8519L77.4746 76.8526C80.5365 77.8732 81.186 80.0015 81.1241 81.0546L81.1232 81.0692V81.0839V87.8224C81.1232 88.5318 80.5497 89.1294 79.8162 89.1294Z" fill="white" stroke="black"/>
<path d="M127.572 57.3948L127.572 57.3949C128.71 58.5739 129.331 60.0515 129.331 61.6196C129.331 63.1703 128.581 64.7222 127.415 65.8883L127.409 65.8945L127.409 65.8944C126.238 67.0246 124.722 67.6942 123.212 67.6534C121.609 67.6314 120.096 66.8639 118.996 65.7384C117.895 64.6122 117.167 63.0872 117.188 61.5004C117.188 61.5003 117.188 61.5002 117.188 61.5002L117.688 61.5068C117.726 58.5706 120.285 56.0482 123.297 56.0481L127.572 57.3948ZM127.572 57.3948L127.566 57.3886C126.429 56.2521 124.913 55.5482 123.297 55.5481L127.572 57.3948ZM131.945 61.6495L131.945 61.6495V61.6573C131.945 63.8793 130.956 66.0876 129.236 67.7731C127.589 69.3477 125.414 70.2674 123.297 70.2674H123.15C118.494 70.194 114.465 66.053 114.536 61.4391L114.536 61.4389C114.607 56.7088 118.522 52.8965 123.259 52.8965H123.331C125.606 52.9331 127.776 53.8573 129.415 55.5321L129.415 55.5321L129.418 55.5359C131.095 57.2126 131.98 59.3798 131.945 61.6495Z" fill="white" stroke="black"/>
<path d="M137.564 89.1294H137.541C136.812 89.1179 136.257 88.5552 136.257 87.8226V80.8205V80.7589L136.242 80.6992C136.207 80.561 136.127 80.4364 136.051 80.341C135.967 80.2342 135.854 80.1208 135.711 80.0065C135.425 79.7773 135.005 79.5353 134.414 79.3313L134.412 79.3307L134.251 79.804L134.412 79.3307L134.412 79.3307L134.411 79.3305L134.409 79.3298L134.402 79.3272L134.372 79.317L134.256 79.2776L133.827 79.1322C133.464 79.0092 132.959 78.8385 132.392 78.6477C131.257 78.2665 129.871 77.8044 128.87 77.4833L128.579 77.3901L128.364 77.6058L123.372 82.5978L118.38 77.6058L118.164 77.3901L117.873 77.4833C116.872 77.8044 115.486 78.2665 114.352 78.6478C113.784 78.8385 113.279 79.0092 112.916 79.1322L112.487 79.2776L112.371 79.317L112.341 79.3272L112.334 79.3298L112.333 79.3302C111.133 79.7303 110.569 80.3581 110.491 80.9003L110.486 80.9355V80.971V87.8224C110.486 88.525 109.882 89.1294 109.179 89.1294C108.47 89.1294 107.872 88.5559 107.872 87.8224V81.0839V81.0766L107.872 81.0693C107.841 79.9956 108.468 77.8701 111.521 76.8526L111.521 76.8526L111.524 76.8515L111.363 76.3782L111.524 76.8515L111.524 76.8515L111.525 76.8512L111.528 76.8502L111.539 76.8464L111.584 76.8312L111.754 76.7732L112.374 76.5629C112.892 76.3871 113.596 76.1484 114.342 75.8967C115.836 75.3924 117.486 74.8393 118.138 74.6342L118.138 74.6342L118.142 74.6332L118.905 74.3878L123.018 78.5011L123.373 78.8562L123.727 78.4995L127.802 74.3883L128.564 74.6332L128.568 74.6342C129.221 74.8394 130.881 75.3928 132.384 75.897C133.135 76.1487 133.844 76.3874 134.365 76.5632L134.989 76.7735L135.16 76.8315L135.205 76.8467L135.217 76.8506L135.22 76.8516L135.22 76.8518L135.221 76.8519L135.381 76.3782L135.221 76.8519L135.223 76.8526C138.285 77.8732 138.934 80.0015 138.872 81.0546L138.871 81.0692V81.0839V87.8224C138.871 88.5318 138.298 89.1294 137.564 89.1294Z" fill="white" stroke="black"/>
<path d="M74.3948 37.5276C74.9972 36.8124 75.6371 36.0971 76.3147 35.4572C76.6159 35.1937 76.6159 34.7043 76.3524 34.4408C76.0888 34.1396 75.5994 34.1396 75.3359 34.4031C74.6207 35.0807 73.943 35.8337 73.3032 36.5866C73.0397 36.8878 73.0773 37.3396 73.3785 37.6031C73.529 37.716 73.6796 37.7536 73.8302 37.7536C74.0561 37.7913 74.2443 37.7159 74.3948 37.5276Z" fill="#6D95FC"/>
<path d="M67.9202 50.8552C68.2591 50.8552 68.5979 50.5917 68.6355 50.2529C68.7861 49.3117 68.9743 48.4082 69.2378 47.5047C69.3508 47.1283 69.1249 46.7142 68.7108 46.6012C68.3343 46.4883 67.9202 46.7142 67.8073 47.1283C67.5438 48.0694 67.3556 49.0481 67.205 50.0645C67.1297 50.4786 67.4308 50.8174 67.8073 50.8927C67.8449 50.8551 67.8826 50.8552 67.9202 50.8552Z" fill="#6D95FC"/>
<path d="M69.9907 43.9276C70.2542 43.9276 70.5177 43.777 70.6683 43.5135C71.0447 42.6477 71.4965 41.8195 71.9859 40.9913C72.1741 40.6525 72.0611 40.2008 71.7223 40.0125C71.3835 39.8243 70.9318 39.9373 70.7436 40.2761C70.2542 41.1419 69.7648 42.0077 69.3507 42.9112C69.2001 43.2876 69.3507 43.7017 69.7271 43.8899C69.8024 43.8899 69.8777 43.9276 69.9907 43.9276Z" fill="#6D95FC"/>
<path d="M104.963 77.6386L104.7 77.7516C104.323 77.9022 104.173 78.3539 104.323 78.6927C104.436 78.9562 104.7 79.1445 105.001 79.1445C105.114 79.1445 105.189 79.1068 105.302 79.0692L105.603 78.9562C105.98 78.8057 106.13 78.3539 105.98 77.9775C105.754 77.601 105.34 77.4504 104.963 77.6386Z" fill="#6D95FC"/>
<path d="M84.0711 77.752C83.6947 77.6015 83.2806 77.752 83.13 78.1285C82.9794 78.5049 83.13 78.9191 83.5064 79.0696C84.4099 79.4461 85.3511 79.8225 86.2923 80.0861C86.3676 80.1237 86.4429 80.1237 86.5181 80.1237C86.8193 80.1237 87.1205 79.9355 87.1958 79.5967C87.3087 79.2202 87.0828 78.8061 86.7064 78.6932C85.8405 78.4297 84.9369 78.1285 84.0711 77.752Z" fill="#6D95FC"/>
<path d="M100.672 79.1069C99.7681 79.3327 98.8269 79.521 97.8857 79.6339C97.4716 79.6716 97.2081 80.048 97.2458 80.4621C97.2834 80.8386 97.6222 81.1021 97.961 81.1021H98.0739C99.0527 80.9515 100.032 80.7633 101.01 80.5374C101.387 80.4245 101.65 80.048 101.537 79.6716C101.462 79.2198 101.048 78.994 100.671 79.1069L100.672 79.1069Z" fill="#6D95FC"/>
<path d="M90.8454 79.6354C90.4313 79.5978 90.0925 79.8613 90.0172 80.2754C89.9796 80.6895 90.2431 81.0283 90.6572 81.1036C91.636 81.2165 92.6148 81.3295 93.6312 81.3295H93.6688C94.0453 81.3295 94.3841 81.0283 94.3841 80.6142C94.3841 80.2001 94.0829 79.8613 93.6688 79.8613C92.7277 79.8236 91.7864 79.7483 90.8454 79.6354Z" fill="#6D95FC"/>
<path d="M118.177 43.6268C118.29 43.8903 118.553 44.0409 118.854 44.0409C118.967 44.0409 119.043 44.0032 119.155 43.9656C119.532 43.815 119.683 43.3633 119.532 43.0244C119.118 42.121 118.666 41.2175 118.177 40.3893C117.988 40.0505 117.537 39.9376 117.198 40.1258C116.859 40.3141 116.746 40.7658 116.934 41.1046C117.386 41.9328 117.8 42.761 118.177 43.6268Z" fill="#6D95FC"/>
<path d="M120.849 50.4221H120.962C121.376 50.3468 121.64 49.9704 121.564 49.5939C121.414 48.6528 121.225 47.7116 121 46.8081C120.887 46.4316 120.51 46.2057 120.096 46.281C119.72 46.394 119.494 46.7704 119.569 47.1845C119.795 48.0504 119.983 48.9161 120.134 49.8196C120.209 50.1584 120.51 50.4219 120.849 50.4219L120.849 50.4221Z" fill="#6D95FC"/>
<path d="M113.585 34.516C113.284 34.2525 112.832 34.2525 112.569 34.516C112.305 34.8172 112.305 35.2689 112.569 35.5324C113.246 36.1724 113.886 36.8876 114.489 37.6029C114.639 37.7911 114.827 37.8664 115.053 37.8664C115.204 37.8664 115.392 37.8287 115.505 37.7158C115.806 37.4523 115.844 37.0005 115.618 36.6994C114.978 35.9465 114.3 35.2313 113.585 34.516Z" fill="#6D95FC"/>
<path d="M68.4948 111.445H48.5268V120.277C49.3801 119.338 50.5748 118.57 52.1108 117.973C53.6468 117.376 55.3108 117.077 57.1028 117.077C60.3028 117.077 62.9481 117.802 65.0387 119.253C67.1721 120.704 68.7294 122.581 69.7108 124.885C70.6921 127.189 71.1828 129.685 71.1828 132.373C71.1828 137.365 69.7748 141.333 66.9588 144.277C64.1428 147.178 60.1748 148.629 55.0548 148.629C51.6414 148.629 48.6761 148.053 46.1588 146.901C43.6414 145.706 41.7001 144.064 40.3348 141.973C38.9694 139.882 38.2228 137.472 38.0948 134.741H48.7828C49.0388 136.064 49.6574 137.173 50.6388 138.069C51.6201 138.922 52.9641 139.349 54.6708 139.349C56.6761 139.349 58.1694 138.709 59.1508 137.429C60.1321 136.149 60.6228 134.442 60.6228 132.309C60.6228 130.218 60.1108 128.618 59.0868 127.509C58.0628 126.4 56.5694 125.845 54.6068 125.845C53.1561 125.845 51.9614 126.208 51.0228 126.933C50.0841 127.616 49.4654 128.533 49.1667 129.685H38.6068V101.845H68.4948V111.445ZM77.2238 124.629C77.2238 117.29 78.6318 111.509 81.4478 107.285C84.3064 103.061 88.8931 100.949 95.2078 100.949C101.522 100.949 106.088 103.061 108.904 107.285C111.762 111.509 113.192 117.29 113.192 124.629C113.192 132.053 111.762 137.877 108.904 142.101C106.088 146.325 101.522 148.437 95.2078 148.437C88.8931 148.437 84.3064 146.325 81.4478 142.101C78.6318 137.877 77.2238 132.053 77.2238 124.629ZM102.44 124.629C102.44 120.32 101.97 117.013 101.032 114.709C100.093 112.362 98.1518 111.189 95.2078 111.189C92.2638 111.189 90.3224 112.362 89.3838 114.709C88.4451 117.013 87.9758 120.32 87.9758 124.629C87.9758 127.53 88.1464 129.941 88.4878 131.861C88.8291 133.738 89.5118 135.274 90.5358 136.469C91.6024 137.621 93.1598 138.197 95.2078 138.197C97.2558 138.197 98.7918 137.621 99.8158 136.469C100.882 135.274 101.586 133.738 101.928 131.861C102.269 129.941 102.44 127.53 102.44 124.629ZM152.51 131.157H141.374V142.549H131.006V131.157H119.87V121.365H131.006V109.909H141.374V121.365H152.51V131.157Z" fill="white"/>
<path d="M18.2184 167.992V169.546H14.2284V182.629H12.3174V169.546H8.3064V167.992H18.2184ZM31.9107 176.434C31.9107 176.798 31.8897 177.183 31.8477 177.589H22.6497C22.7197 178.723 23.1047 179.612 23.8047 180.256C24.5187 180.886 25.3797 181.201 26.3877 181.201C27.2137 181.201 27.8997 181.012 28.4457 180.634C29.0057 180.242 29.3977 179.724 29.6217 179.08H31.6797C31.3717 180.186 30.7557 181.089 29.8317 181.789C28.9077 182.475 27.7597 182.818 26.3877 182.818C25.2957 182.818 24.3157 182.573 23.4477 182.083C22.5937 181.593 21.9217 180.9 21.4317 180.004C20.9417 179.094 20.6967 178.044 20.6967 176.854C20.6967 175.664 20.9347 174.621 21.4107 173.725C21.8867 172.829 22.5517 172.143 23.4057 171.667C24.2737 171.177 25.2677 170.932 26.3877 170.932C27.4797 170.932 28.4457 171.17 29.2857 171.646C30.1257 172.122 30.7697 172.78 31.2177 173.62C31.6797 174.446 31.9107 175.384 31.9107 176.434ZM29.9367 176.035C29.9367 175.307 29.7757 174.684 29.4537 174.166C29.1317 173.634 28.6907 173.235 28.1307 172.969C27.5847 172.689 26.9757 172.549 26.3037 172.549C25.3377 172.549 24.5117 172.857 23.8257 173.473C23.1537 174.089 22.7687 174.943 22.6707 176.035H29.9367ZM34.5592 176.833C34.5592 175.657 34.7972 174.628 35.2732 173.746C35.7492 172.85 36.4002 172.157 37.2262 171.667C38.0662 171.177 38.9972 170.932 40.0192 170.932C41.0272 170.932 41.9022 171.149 42.6442 171.583C43.3862 172.017 43.9392 172.563 44.3032 173.221V171.121H46.2352V182.629H44.3032V180.487C43.9252 181.159 43.3582 181.719 42.6022 182.167C41.8602 182.601 40.9922 182.818 39.9982 182.818C38.9762 182.818 38.0522 182.566 37.2262 182.062C36.4002 181.558 35.7492 180.851 35.2732 179.941C34.7972 179.031 34.5592 177.995 34.5592 176.833ZM44.3032 176.854C44.3032 175.986 44.1282 175.23 43.7782 174.586C43.4282 173.942 42.9522 173.452 42.3502 173.116C41.7622 172.766 41.1112 172.591 40.3972 172.591C39.6832 172.591 39.0322 172.759 38.4442 173.095C37.8562 173.431 37.3872 173.921 37.0372 174.565C36.6872 175.209 36.5122 175.965 36.5122 176.833C36.5122 177.715 36.6872 178.485 37.0372 179.143C37.3872 179.787 37.8562 180.284 38.4442 180.634C39.0322 180.97 39.6832 181.138 40.3972 181.138C41.1112 181.138 41.7622 180.97 42.3502 180.634C42.9522 180.284 43.4282 179.787 43.7782 179.143C44.1282 178.485 44.3032 177.722 44.3032 176.854ZM64.1436 170.911C65.0396 170.911 65.8376 171.1 66.5376 171.478C67.2376 171.842 67.7906 172.395 68.1966 173.137C68.6026 173.879 68.8056 174.782 68.8056 175.846V182.629H66.9156V176.119C66.9156 174.971 66.6286 174.096 66.0546 173.494C65.4946 172.878 64.7316 172.57 63.7656 172.57C62.7716 172.57 61.9806 172.892 61.3926 173.536C60.8046 174.166 60.5106 175.083 60.5106 176.287V182.629H58.6206V176.119C58.6206 174.971 58.3336 174.096 57.7596 173.494C57.1996 172.878 56.4366 172.57 55.4706 172.57C54.4766 172.57 53.6856 172.892 53.0976 173.536C52.5096 174.166 52.2156 175.083 52.2156 176.287V182.629H50.3046V171.121H52.2156V172.78C52.5936 172.178 53.0976 171.716 53.7276 171.394C54.3716 171.072 55.0786 170.911 55.8486 170.911C56.8146 170.911 57.6686 171.128 58.4106 171.562C59.1526 171.996 59.7056 172.633 60.0696 173.473C60.3916 172.661 60.9236 172.031 61.6656 171.583C62.4076 171.135 63.2336 170.911 64.1436 170.911ZM94.066 168.097V182.629H92.155V171.793L87.325 182.629H85.981L81.13 171.772V182.629H79.219V168.097H81.277L86.653 180.109L92.029 168.097H94.066ZM108.647 176.434C108.647 176.798 108.626 177.183 108.584 177.589H99.3859C99.4559 178.723 99.8409 179.612 100.541 180.256C101.255 180.886 102.116 181.201 103.124 181.201C103.95 181.201 104.636 181.012 105.182 180.634C105.742 180.242 106.134 179.724 106.358 179.08H108.416C108.108 180.186 107.492 181.089 106.568 181.789C105.644 182.475 104.496 182.818 103.124 182.818C102.032 182.818 101.052 182.573 100.184 182.083C99.3299 181.593 98.6579 180.9 98.1679 180.004C97.6779 179.094 97.4329 178.044 97.4329 176.854C97.4329 175.664 97.6709 174.621 98.1469 173.725C98.6229 172.829 99.2879 172.143 100.142 171.667C101.01 171.177 102.004 170.932 103.124 170.932C104.216 170.932 105.182 171.17 106.022 171.646C106.862 172.122 107.506 172.78 107.954 173.62C108.416 174.446 108.647 175.384 108.647 176.434ZM106.673 176.035C106.673 175.307 106.512 174.684 106.19 174.166C105.868 173.634 105.427 173.235 104.867 172.969C104.321 172.689 103.712 172.549 103.04 172.549C102.074 172.549 101.248 172.857 100.562 173.473C99.8899 174.089 99.5049 174.943 99.4069 176.035H106.673ZM125.848 170.911C126.744 170.911 127.542 171.1 128.242 171.478C128.942 171.842 129.495 172.395 129.901 173.137C130.307 173.879 130.51 174.782 130.51 175.846V182.629H128.62V176.119C128.62 174.971 128.333 174.096 127.759 173.494C127.199 172.878 126.436 172.57 125.47 172.57C124.476 172.57 123.685 172.892 123.097 173.536C122.509 174.166 122.215 175.083 122.215 176.287V182.629H120.325V176.119C120.325 174.971 120.038 174.096 119.464 173.494C118.904 172.878 118.141 172.57 117.175 172.57C116.181 172.57 115.39 172.892 114.802 173.536C114.214 174.166 113.92 175.083 113.92 176.287V182.629H112.009V171.121H113.92V172.78C114.298 172.178 114.802 171.716 115.432 171.394C116.076 171.072 116.783 170.911 117.553 170.911C118.519 170.911 119.373 171.128 120.115 171.562C120.857 171.996 121.41 172.633 121.774 173.473C122.096 172.661 122.628 172.031 123.37 171.583C124.112 171.135 124.938 170.911 125.848 170.911ZM136.396 173.263C136.788 172.577 137.362 172.017 138.118 171.583C138.874 171.149 139.735 170.932 140.701 170.932C141.737 170.932 142.668 171.177 143.494 171.667C144.32 172.157 144.971 172.85 145.447 173.746C145.923 174.628 146.161 175.657 146.161 176.833C146.161 177.995 145.923 179.031 145.447 179.941C144.971 180.851 144.313 181.558 143.473 182.062C142.647 182.566 141.723 182.818 140.701 182.818C139.707 182.818 138.832 182.601 138.076 182.167C137.334 181.733 136.774 181.18 136.396 180.508V182.629H134.485V167.089H136.396V173.263ZM144.208 176.833C144.208 175.965 144.033 175.209 143.683 174.565C143.333 173.921 142.857 173.431 142.255 173.095C141.667 172.759 141.016 172.591 140.302 172.591C139.602 172.591 138.951 172.766 138.349 173.116C137.761 173.452 137.285 173.949 136.921 174.607C136.571 175.251 136.396 176 136.396 176.854C136.396 177.722 136.571 178.485 136.921 179.143C137.285 179.787 137.761 180.284 138.349 180.634C138.951 180.97 139.602 181.138 140.302 181.138C141.016 181.138 141.667 180.97 142.255 180.634C142.857 180.284 143.333 179.787 143.683 179.143C144.033 178.485 144.208 177.715 144.208 176.833ZM160.016 176.434C160.016 176.798 159.995 177.183 159.953 177.589H150.755C150.825 178.723 151.21 179.612 151.91 180.256C152.624 180.886 153.485 181.201 154.493 181.201C155.319 181.201 156.005 181.012 156.551 180.634C157.111 180.242 157.503 179.724 157.727 179.08H159.785C159.477 180.186 158.861 181.089 157.937 181.789C157.013 182.475 155.865 182.818 154.493 182.818C153.401 182.818 152.421 182.573 151.553 182.083C150.699 181.593 150.027 180.9 149.537 180.004C149.047 179.094 148.802 178.044 148.802 176.854C148.802 175.664 149.04 174.621 149.516 173.725C149.992 172.829 150.657 172.143 151.511 171.667C152.379 171.177 153.373 170.932 154.493 170.932C155.585 170.932 156.551 171.17 157.391 171.646C158.231 172.122 158.875 172.78 159.323 173.62C159.785 174.446 160.016 175.384 160.016 176.434ZM158.042 176.035C158.042 175.307 157.881 174.684 157.559 174.166C157.237 173.634 156.796 173.235 156.236 172.969C155.69 172.689 155.081 172.549 154.409 172.549C153.443 172.549 152.617 172.857 151.931 173.473C151.259 174.089 150.874 174.943 150.776 176.035H158.042ZM165.29 172.99C165.626 172.332 166.102 171.821 166.718 171.457C167.348 171.093 168.111 170.911 169.007 170.911V172.885H168.503C166.361 172.885 165.29 174.047 165.29 176.371V182.629H163.379V171.121H165.29V172.99ZM176.127 182.818C175.245 182.818 174.454 182.671 173.754 182.377C173.054 182.069 172.501 181.649 172.095 181.117C171.689 180.571 171.465 179.948 171.423 179.248H173.397C173.453 179.822 173.719 180.291 174.195 180.655C174.685 181.019 175.322 181.201 176.106 181.201C176.834 181.201 177.408 181.04 177.828 180.718C178.248 180.396 178.458 179.99 178.458 179.5C178.458 178.996 178.234 178.625 177.786 178.387C177.338 178.135 176.645 177.89 175.707 177.652C174.853 177.428 174.153 177.204 173.607 176.98C173.075 176.742 172.613 176.399 172.221 175.951C171.843 175.489 171.654 174.887 171.654 174.145C171.654 173.557 171.829 173.018 172.179 172.528C172.529 172.038 173.026 171.653 173.67 171.373C174.314 171.079 175.049 170.932 175.875 170.932C177.149 170.932 178.178 171.254 178.962 171.898C179.746 172.542 180.166 173.424 180.222 174.544H178.311C178.269 173.942 178.024 173.459 177.576 173.095C177.142 172.731 176.554 172.549 175.812 172.549C175.126 172.549 174.58 172.696 174.174 172.99C173.768 173.284 173.565 173.669 173.565 174.145C173.565 174.523 173.684 174.838 173.922 175.09C174.174 175.328 174.482 175.524 174.846 175.678C175.224 175.818 175.742 175.979 176.4 176.161C177.226 176.385 177.898 176.609 178.416 176.833C178.934 177.043 179.375 177.365 179.739 177.799C180.117 178.233 180.313 178.8 180.327 179.5C180.327 180.13 180.152 180.697 179.802 181.201C179.452 181.705 178.955 182.104 178.311 182.398C177.681 182.678 176.953 182.818 176.127 182.818Z" fill="#6D95FC"/>
</svg>
