<svg width="179" height="16" viewBox="0 0 179 16" fill="none" xmlns="http://www.w3.org/2000/svg">
<path d="M8.232 15.147C6.874 15.147 5.621 14.832 4.473 14.202C3.339 13.558 2.436 12.669 1.764 11.535C1.106 10.387 0.777 9.099 0.777 7.671C0.777 6.243 1.106 4.962 1.764 3.828C2.436 2.694 3.339 1.812 4.473 1.182C5.621 0.537999 6.874 0.215999 8.232 0.215999C9.604 0.215999 10.857 0.537999 11.991 1.182C13.139 1.812 14.042 2.694 14.7 3.828C15.358 4.962 15.687 6.243 15.687 7.671C15.687 9.099 15.358 10.387 14.7 11.535C14.042 12.669 13.139 13.558 11.991 14.202C10.857 14.832 9.604 15.147 8.232 15.147ZM8.232 13.068C9.198 13.068 10.059 12.851 10.815 12.417C11.571 11.969 12.159 11.339 12.579 10.527C13.013 9.701 13.23 8.749 13.23 7.671C13.23 6.593 13.013 5.648 12.579 4.836C12.159 4.024 11.571 3.401 10.815 2.967C10.059 2.533 9.198 2.316 8.232 2.316C7.266 2.316 6.405 2.533 5.649 2.967C4.893 3.401 4.298 4.024 3.864 4.836C3.444 5.648 3.234 6.593 3.234 7.671C3.234 8.749 3.444 9.701 3.864 10.527C4.298 11.339 4.893 11.969 5.649 12.417C6.405 12.851 7.266 13.068 8.232 13.068ZM23.4608 0.404999V9.708C23.4608 10.814 23.7478 11.647 24.3218 12.207C24.9098 12.767 25.7218 13.047 26.7578 13.047C27.8078 13.047 28.6198 12.767 29.1938 12.207C29.7818 11.647 30.0758 10.814 30.0758 9.708V0.404999H32.4698V9.666C32.4698 10.856 32.2108 11.864 31.6928 12.69C31.1748 13.516 30.4818 14.132 29.6138 14.538C28.7458 14.944 27.7868 15.147 26.7368 15.147C25.6868 15.147 24.7278 14.944 23.8598 14.538C23.0058 14.132 22.3268 13.516 21.8228 12.69C21.3188 11.864 21.0668 10.856 21.0668 9.666V0.404999H23.4608ZM46.2128 15L42.8528 9.162H41.0258V15H38.6318V0.404999H43.6718C44.7918 0.404999 45.7368 0.600999 46.5068 0.992999C47.2908 1.385 47.8718 1.91 48.2498 2.568C48.6418 3.226 48.8378 3.961 48.8378 4.773C48.8378 5.725 48.5578 6.593 47.9978 7.377C47.4518 8.147 46.6048 8.672 45.4568 8.952L49.0688 15H46.2128ZM41.0258 7.251H43.6718C44.5678 7.251 45.2398 7.027 45.6878 6.579C46.1498 6.131 46.3808 5.529 46.3808 4.773C46.3808 4.017 46.1568 3.429 45.7088 3.009C45.2608 2.575 44.5818 2.358 43.6718 2.358H41.0258V7.251ZM68.2544 15.147C67.2744 15.147 66.3924 14.979 65.6084 14.643C64.8244 14.293 64.2084 13.803 63.7604 13.173C63.3124 12.543 63.0884 11.808 63.0884 10.968H65.6504C65.7064 11.598 65.9514 12.116 66.3854 12.522C66.8334 12.928 67.4564 13.131 68.2544 13.131C69.0804 13.131 69.7244 12.935 70.1864 12.543C70.6484 12.137 70.8794 11.619 70.8794 10.989C70.8794 10.499 70.7324 10.1 70.4384 9.792C70.1584 9.484 69.8014 9.246 69.3674 9.078C68.9474 8.91 68.3594 8.728 67.6034 8.532C66.6514 8.28 65.8744 8.028 65.2724 7.776C64.6844 7.51 64.1804 7.104 63.7604 6.558C63.3404 6.012 63.1304 5.284 63.1304 4.374C63.1304 3.534 63.3404 2.799 63.7604 2.169C64.1804 1.539 64.7684 1.056 65.5244 0.72C66.2804 0.383999 67.1554 0.215999 68.1494 0.215999C69.5634 0.215999 70.7184 0.572999 71.6144 1.287C72.5244 1.987 73.0284 2.953 73.1264 4.185H70.4804C70.4384 3.653 70.1864 3.198 69.7244 2.82C69.2624 2.442 68.6534 2.253 67.8974 2.253C67.2114 2.253 66.6514 2.428 66.2174 2.778C65.7834 3.128 65.5664 3.632 65.5664 4.29C65.5664 4.738 65.6994 5.109 65.9654 5.403C66.2454 5.683 66.5954 5.907 67.0154 6.075C67.4354 6.243 68.0094 6.425 68.7374 6.621C69.7034 6.887 70.4874 7.153 71.0894 7.419C71.7054 7.685 72.2234 8.098 72.6434 8.658C73.0774 9.204 73.2944 9.939 73.2944 10.863C73.2944 11.605 73.0914 12.305 72.6854 12.963C72.2934 13.621 71.7124 14.153 70.9424 14.559C70.1864 14.951 69.2904 15.147 68.2544 15.147ZM81.5583 2.337V6.621H86.5983V8.574H81.5583V13.047H87.2283V15H79.1643V0.383999H87.2283V2.337H81.5583ZM100.803 15L97.443 9.162H95.616V15H93.222V0.404999H98.262C99.382 0.404999 100.327 0.600999 101.097 0.992999C101.881 1.385 102.462 1.91 102.84 2.568C103.232 3.226 103.428 3.961 103.428 4.773C103.428 5.725 103.148 6.593 102.588 7.377C102.042 8.147 101.195 8.672 100.047 8.952L103.659 15H100.803ZM95.616 7.251H98.262C99.158 7.251 99.83 7.027 100.278 6.579C100.74 6.131 100.971 5.529 100.971 4.773C100.971 4.017 100.747 3.429 100.299 3.009C99.851 2.575 99.172 2.358 98.262 2.358H95.616V7.251ZM122.115 0.404999L116.634 15H113.862L108.36 0.404999H110.922L115.248 12.543L119.595 0.404999H122.115ZM129.556 0.404999V15H127.162V0.404999H129.556ZM134.946 7.671C134.946 6.243 135.275 4.962 135.933 3.828C136.605 2.694 137.508 1.812 138.642 1.182C139.79 0.537999 141.043 0.215999 142.401 0.215999C143.955 0.215999 145.334 0.600999 146.538 1.371C147.756 2.127 148.638 3.205 149.184 4.605H146.307C145.929 3.835 145.404 3.261 144.732 2.883C144.06 2.505 143.283 2.316 142.401 2.316C141.435 2.316 140.574 2.533 139.818 2.967C139.062 3.401 138.467 4.024 138.033 4.836C137.613 5.648 137.403 6.593 137.403 7.671C137.403 8.749 137.613 9.694 138.033 10.506C138.467 11.318 139.062 11.948 139.818 12.396C140.574 12.83 141.435 13.047 142.401 13.047C143.283 13.047 144.06 12.858 144.732 12.48C145.404 12.102 145.929 11.528 146.307 10.758H149.184C148.638 12.158 147.756 13.236 146.538 13.992C145.334 14.748 143.955 15.126 142.401 15.126C141.029 15.126 139.776 14.811 138.642 14.181C137.508 13.537 136.605 12.648 135.933 11.514C135.275 10.38 134.946 9.099 134.946 7.671ZM157.425 2.337V6.621H162.465V8.574H157.425V13.047H163.095V15H155.031V0.383999H163.095V2.337H157.425ZM173.898 15.147C172.918 15.147 172.036 14.979 171.252 14.643C170.468 14.293 169.852 13.803 169.404 13.173C168.956 12.543 168.732 11.808 168.732 10.968H171.294C171.35 11.598 171.595 12.116 172.029 12.522C172.477 12.928 173.1 13.131 173.898 13.131C174.724 13.131 175.368 12.935 175.83 12.543C176.292 12.137 176.523 11.619 176.523 10.989C176.523 10.499 176.376 10.1 176.082 9.792C175.802 9.484 175.445 9.246 175.011 9.078C174.591 8.91 174.003 8.728 173.247 8.532C172.295 8.28 171.518 8.028 170.916 7.776C170.328 7.51 169.824 7.104 169.404 6.558C168.984 6.012 168.774 5.284 168.774 4.374C168.774 3.534 168.984 2.799 169.404 2.169C169.824 1.539 170.412 1.056 171.168 0.72C171.924 0.383999 172.799 0.215999 173.793 0.215999C175.207 0.215999 176.362 0.572999 177.258 1.287C178.168 1.987 178.672 2.953 178.77 4.185H176.124C176.082 3.653 175.83 3.198 175.368 2.82C174.906 2.442 174.297 2.253 173.541 2.253C172.855 2.253 172.295 2.428 171.861 2.778C171.427 3.128 171.21 3.632 171.21 4.29C171.21 4.738 171.343 5.109 171.609 5.403C171.889 5.683 172.239 5.907 172.659 6.075C173.079 6.243 173.653 6.425 174.381 6.621C175.347 6.887 176.131 7.153 176.733 7.419C177.349 7.685 177.867 8.098 178.287 8.658C178.721 9.204 178.938 9.939 178.938 10.863C178.938 11.605 178.735 12.305 178.329 12.963C177.937 13.621 177.356 14.153 176.586 14.559C175.83 14.951 174.934 15.147 173.898 15.147Z" fill="#6D95FC"/>
</svg>
