<svg width="189" height="205" viewBox="0 0 189 205" fill="none" xmlns="http://www.w3.org/2000/svg">
<path d="M104.232 102.421C104.764 102.356 105.223 101.997 105.408 101.484C105.614 100.915 105.441 100.278 104.976 99.8918C100.613 96.2732 97.9387 91.0118 97.5887 85.3536C97.2387 79.6954 99.2439 74.1442 103.128 70.0162C107.013 65.8872 112.432 63.548 118.101 63.5533C118.986 63.5542 119.871 63.6099 120.75 63.7223C121.16 63.7737 121.571 63.6472 121.879 63.3749C122.189 63.102 122.366 62.7102 122.366 62.2984V17.3075C122.365 15.7552 121.747 14.2672 120.65 13.1696C119.552 12.0721 118.064 11.4548 116.512 11.4531H101.764C100.971 11.4531 100.328 12.0963 100.328 12.8895V17.7738V18.2738H99.8278H70.0556H69.5556V17.7738V12.8895C69.5556 12.5086 69.4042 12.143 69.135 11.8738C68.8657 11.6045 68.5001 11.4531 68.1192 11.4531H53.3542C51.8019 11.4548 50.3141 12.0721 49.2165 13.1696C49.2165 13.1696 49.2165 13.1696 49.2165 13.1696M104.232 102.421L47 17.307C47.0017 15.6222 47.6717 14.0074 48.8629 12.8161L49.2165 13.1696M104.232 102.421H104.057H53.3546C51.8029 102.419 50.315 101.802 49.2174 100.704C48.1198 99.6066 47.5025 98.1187 47.5 96.5672V17.3073M104.232 102.421L47.5 17.3073M49.2165 13.1696C48.1189 14.2672 47.5017 15.755 47.5 17.3073M49.2165 13.1696L47.5 17.3073M53.3539 14.3264V14.3264L53.3494 14.3264C51.712 14.3409 50.3901 15.6671 50.3797 17.3043H50.3797V17.3074L50.3797 96.568L50.3797 96.5687C50.3818 98.2104 51.7098 99.543 53.352 99.5491H53.3539H99.4408H100.483L99.8308 98.7362C96.1321 94.1251 94.3148 88.285 94.7447 82.389C95.1747 76.493 97.819 70.9779 102.147 66.9516C106.476 62.9254 112.168 60.6858 118.079 60.6823C118.381 60.6823 118.665 60.6824 118.948 60.6988L119.477 60.7292V60.1996V17.3084V17.3077C119.475 15.6627 118.141 14.3294 116.496 14.3273H116.496H103.701H103.201V14.8273V19.7115C103.201 20.0925 103.049 20.458 102.78 20.7273C102.511 20.9966 102.145 21.1479 101.764 21.1479H68.1193C67.3259 21.1479 66.6829 20.5054 66.6829 19.7115V14.8273V14.3273L66.1829 14.3273L53.3539 14.3264Z" fill="white" stroke="black"/>
<path d="M77.7889 6.83955H77.3717H68.12C67.3268 6.83955 66.6836 7.48277 66.6836 8.27597V19.7104C66.6836 20.5043 67.3267 21.1468 68.12 21.1468H101.765H101.766C102.559 21.1468 103.202 20.5043 103.202 19.7104V8.27597C103.202 7.89502 103.051 7.52946 102.781 7.2602C102.512 6.99093 102.146 6.83955 101.766 6.83955H92.5216H92.1044L92.0297 6.42911C91.6239 4.20053 90.1924 2.29282 88.1657 1.2791C86.1393 0.266347 83.754 0.266344 81.7276 1.27908L77.7889 6.83955ZM77.7889 6.83955L77.8636 6.42911M77.7889 6.83955L77.8636 6.42911M77.8636 6.42911C78.2694 4.2006 79.7008 2.29305 81.7274 1.27917L77.8636 6.42911ZM69.5565 18.274L69.5564 17.774L69.5561 10.2124L69.5561 9.71239H70.0561H79.1841H79.1865C79.5927 9.71432 79.9805 9.54398 80.2546 9.24384C80.5232 8.94887 80.657 8.5572 80.6252 8.16167L80.6247 8.15822C80.6006 7.98966 80.6006 7.84349 80.6007 7.72193V7.71233V7.69947L80.6008 7.69947C80.6399 6.18017 81.4715 4.79215 82.7951 4.04329L69.5565 18.274ZM69.5565 18.274H70.0564H99.8287H100.329V17.774V10.2124V9.71239H99.8287L90.6695 9.71239L90.6671 9.7124C90.2607 9.71432 89.872 9.54381 89.5981 9.24384M69.5565 18.274L89.5981 9.24384M89.5981 9.24384C89.3242 8.94301 89.1909 8.54106 89.2307 8.1364L89.2307 8.13622M89.5981 9.24384L89.2307 8.13622M89.2307 8.13622C89.2441 7.99896 89.2521 7.86408 89.2521 7.71233H89.2523M89.2307 8.13622L89.2523 7.71233M89.2523 7.71233L89.2519 7.69979M89.2523 7.71233L89.2519 7.69979M89.2519 7.69979C89.2138 6.17994 88.3811 4.79198 87.0585 4.04328M89.2519 7.69979L87.0585 4.04328M87.0585 4.04328C85.7362 3.29465 84.1176 3.29456 82.7952 4.0432L87.0585 4.04328Z" fill="white" stroke="black"/>
<path d="M58.2704 93.6019C57.4772 93.6019 56.834 92.9587 56.834 92.1655V21.704C56.834 20.9101 57.4771 20.2676 58.2704 20.2676C59.0638 20.2676 59.7068 20.9101 59.7068 21.704V92.1655C59.7068 92.5461 59.5557 92.9111 59.2858 93.1817C59.0165 93.4507 58.6512 93.6019 58.2704 93.6019Z" fill="#6D95FC" stroke="black"/>
<path d="M111.602 64.5292C110.809 64.5292 110.166 63.886 110.166 63.0928V21.702C110.166 20.9088 110.809 20.2656 111.602 20.2656C112.396 20.2656 113.039 20.9088 113.039 21.702V63.0928C113.039 63.4738 112.887 63.8393 112.618 64.1086L112.972 64.4621L112.618 64.1086C112.349 64.3779 111.983 64.5292 111.602 64.5292Z" fill="#6D95FC" stroke="black"/>
<path d="M103.292 69.2898H65.6259C64.8325 69.2898 64.1895 68.6473 64.1895 67.8534C64.1895 67.0602 64.8327 66.417 65.6259 66.417H103.292C104.085 66.417 104.728 67.0602 104.728 67.8534C104.728 68.6473 104.085 69.2898 103.292 69.2898Z" fill="#6D95FC" stroke="black"/>
<path d="M97.9384 76.781H65.6278C64.8346 76.781 64.1914 76.1378 64.1914 75.3446C64.1914 74.5507 64.8345 73.9082 65.6278 73.9082H97.9384C98.7318 73.9082 99.3749 74.5507 99.3749 75.3446C99.3749 76.1378 98.7316 76.781 97.9384 76.781Z" fill="#6D95FC" stroke="black"/>
<path d="M96.1638 84.2703H65.6259C64.8327 84.2703 64.1895 83.6271 64.1895 82.8339C64.1895 82.0407 64.8327 81.3975 65.6259 81.3975H96.1638C96.957 81.3975 97.6003 82.0407 97.6003 82.8339C97.6003 83.6271 96.957 84.2703 96.1638 84.2703Z" fill="#6D95FC" stroke="black"/>
<path d="M97.0289 91.7586H65.6278C64.8346 91.7586 64.1914 91.1154 64.1914 90.3222C64.1914 89.529 64.8346 88.8857 65.6278 88.8857H97.0289C97.8228 88.8857 98.4653 89.5288 98.4653 90.3222C98.4653 91.1155 97.8228 91.7586 97.0289 91.7586Z" fill="#6D95FC" stroke="black"/>
<path d="M134.637 100.618L134.637 100.618C139.024 96.231 141.493 90.2816 141.5 84.0764C141.5 77.869 139.035 71.9159 134.646 67.5257C130.257 63.1363 124.304 60.6698 118.097 60.6689L134.637 100.618ZM134.637 100.618C130.249 105.006 124.299 107.474 118.094 107.48C111.887 107.48 105.934 105.013 101.544 100.624M134.637 100.618L101.544 100.624M101.544 100.624C97.155 96.2345 94.6895 90.2811 94.6895 84.0735M101.544 100.624L94.6895 84.0735M94.6895 84.0735C94.6895 77.8661 97.1559 71.9125 101.545 67.524M94.6895 84.0735L101.545 67.524M101.545 67.524C105.936 63.1345 111.889 60.669 118.097 60.6689L101.545 67.524ZM118.595 63.5603V63.544H118.095C112.649 63.544 107.427 65.7078 103.576 69.5577L103.576 69.5577C99.7251 73.4086 97.5623 78.6309 97.5623 84.0766C97.5623 89.5223 99.7252 94.7446 103.576 98.5955L103.576 98.5955C107.427 102.445 112.649 104.609 118.095 104.609C123.541 104.609 128.763 102.445 132.613 98.5955C136.464 94.7446 138.627 89.5223 138.627 84.0766V84.0758C138.619 78.6339 136.453 73.4169 132.604 69.5698C128.873 65.8405 123.856 63.6931 118.595 63.5603Z" fill="white" stroke="black"/>
<path d="M111.843 91.5119L111.842 91.5113L109.497 89.1689L109.497 89.1686L109.496 89.168L109.496 89.1679C109.227 88.899 109.076 88.5336 109.076 88.1521C109.076 87.7712 109.227 87.4059 109.497 87.1368L109.497 87.1365C110.059 86.5759 110.969 86.5762 111.529 87.137L111.529 87.1372L112.497 88.1054L112.851 88.4589L113.205 88.1055L124.651 76.6613C125.216 76.1293 126.103 76.1416 126.652 76.691C127.202 77.2403 127.214 78.1274 126.682 78.692L113.859 91.5151C113.859 91.5153 113.859 91.5154 113.858 91.5156C113.592 91.7808 113.232 91.9307 112.855 91.9339C112.475 91.9327 112.111 91.7808 111.843 91.5119Z" fill="#6D95FC" stroke="black"/>
<path d="M105.877 96.3022L105.877 96.3022C109.117 99.5433 113.511 101.363 118.094 101.363C122.675 101.358 127.067 99.5367 130.306 96.2977C133.546 93.0589 135.368 88.6672 135.374 84.0865C135.374 79.5044 133.554 75.1088 130.314 71.8685C127.074 68.6272 122.679 66.8065 118.097 66.8057L105.877 96.3022ZM105.877 96.3022C102.636 93.0618 100.816 88.6668 100.816 84.0836M105.877 96.3022L100.816 84.0836M118.095 69.6812H118.096C121.915 69.6857 125.577 71.2045 128.277 73.9053C128.277 73.9054 128.277 73.9054 128.277 73.9055M118.095 69.6812L127.923 74.2589L128.277 73.9055M118.095 69.6812C114.275 69.6812 110.61 71.1991 107.908 73.9009L107.908 73.901C105.207 76.6019 103.689 80.2667 103.689 84.0871C103.689 87.9076 105.207 91.5721 107.908 94.2741L107.908 94.2742C110.61 96.9751 114.275 98.4931 118.095 98.4931C121.916 98.4931 125.58 96.9751 128.281 94.2742L128.281 94.2742C130.983 91.5723 132.501 87.9076 132.501 84.0871V84.0865C132.497 80.2673 130.978 76.6054 128.277 73.9055M118.095 69.6812L128.277 73.9055M100.816 84.0836C100.816 79.5013 102.637 75.1066 105.877 71.8659M100.816 84.0836L105.877 71.8659M105.877 71.8659C105.877 71.8659 105.877 71.8659 105.878 71.8659C109.119 68.6255 113.514 66.8057 118.097 66.8057L105.877 71.8659Z" fill="white" stroke="black"/>
<path d="M80.144 55.8502V56.1797V60.5056C80.144 61.2988 80.7872 61.942 81.5804 61.942H88.2895C88.6702 61.942 89.0356 61.7908 89.3049 61.5217C89.5748 61.2512 89.726 60.8861 89.726 60.5055V56.1797V55.8493L90.0298 55.7197C91.0042 55.3042 91.9241 54.7722 92.769 54.1346L92.9027 54.0337H93.0702H93.071H93.2051L93.3211 54.1007L97.0678 56.2645L97.068 56.2646C97.7549 56.6616 98.6334 56.4267 99.0302 55.7408L102.385 49.9321L80.144 55.8502ZM80.144 55.8502L79.8411 55.7202C78.8679 55.3028 77.949 54.7713 77.1024 54.1364L76.8383 53.9383L76.5524 54.1034L72.9217 56.2001M80.144 55.8502L72.9217 56.2001M72.9217 56.2001H72.9208L72.8047 56.2672C72.4751 56.4577 72.0827 56.5096 71.7148 56.4109L71.5853 56.8938L71.7148 56.4109C71.3469 56.3122 71.0332 56.0711 70.8426 55.7412C70.8425 55.7412 70.8425 55.7412 70.8425 55.7411L67.4877 49.9322L72.9217 56.2001ZM66.861 48.7116L67.3439 48.8411C67.2452 49.2088 67.297 49.6013 67.4876 49.932L66.861 48.7116ZM66.861 48.7116L67.3439 48.8411C67.4426 48.4732 67.6837 48.1594 68.0136 47.9688L71.7583 45.8077L72.0445 45.6426M66.861 48.7116L72.0445 45.6426M72.0445 45.6426L72.0048 45.3145M72.0445 45.6426L72.0048 45.3145M72.0048 45.3145C71.8773 44.2635 71.8773 43.2008 72.0048 42.1498L72.0445 41.8217M72.0048 45.3145L72.0445 41.8217M72.0445 41.8217L71.7583 41.6566M72.0445 41.8217L71.7583 41.6566M71.7583 41.6566L68.0136 39.4955L71.7583 41.6566ZM67.3439 38.6232L67.3439 38.6232C67.4426 38.991 67.6836 39.3047 68.0134 39.4954L67.3439 38.6232ZM67.3439 38.6232C67.2452 38.2555 67.297 37.8628 67.4877 37.5321L70.8425 31.7232C70.8425 31.7232 70.8425 31.7231 70.8426 31.7231C71.0332 31.3932 71.3469 31.1521 71.7148 31.0534L71.7148 31.0534M67.3439 38.6232L71.7148 31.0534M71.7148 31.0534C72.0827 30.9548 72.4751 31.0067 72.8047 31.1971L72.8048 31.1971M71.7148 31.0534L72.8048 31.1971M72.8048 31.1971L76.5515 33.3609L76.6676 33.4279M72.8048 31.1971L76.6676 33.4279M76.6676 33.4279H76.8016M76.6676 33.4279H76.8016M76.8016 33.4279H76.8024H76.9694M76.8016 33.4279H76.9694M76.9694 33.4279L77.1029 33.3276M76.9694 33.4279L77.1029 33.3276M77.1029 33.3276C77.9481 32.6922 78.8677 32.1608 79.8408 31.7442L80.144 31.6144M77.1029 33.3276L80.144 31.6144M80.144 31.6144V31.2846M80.144 31.6144V31.2846M80.144 31.2846V26.9569C80.144 26.163 80.7871 25.5205 81.5804 25.5205H88.2895M80.144 31.2846L88.2895 25.5205M88.2895 25.5205C88.6705 25.5205 89.0361 25.6719 89.3053 25.9412C89.5746 26.2104 89.726 26.576 89.726 26.9569V30.5251V31.2819V31.2828H90.2256M88.2895 25.5205L90.2256 31.2828M90.2256 31.2828L90.0298 31.7418C91.0039 32.1573 91.9234 32.6895 92.77 33.3251L93.034 33.5234L93.32 33.3584L97.0676 31.1973L97.0679 31.197C97.3975 31.0066 97.79 30.9547 98.1578 31.0534L98.2874 30.5705L98.1578 31.0534C98.5257 31.1521 98.8395 31.3932 99.0301 31.7231L102.385 37.532L90.2256 31.2828ZM101.859 39.4954C102.189 39.3047 102.43 38.991 102.529 38.6231C102.627 38.2555 102.576 37.863 102.385 37.5323L101.859 39.4954ZM101.859 39.4954C101.859 39.4954 101.859 39.4954 101.859 39.4955L98.2286 41.5896H97.7959L97.8654 42.151C97.9302 42.6747 97.9619 43.202 97.961 43.7304L97.961 43.732C97.9619 44.2605 97.9302 44.7895 97.8677 45.3156L97.8288 45.6429L98.1143 45.8077L101.859 47.9687C102.189 48.1593 102.43 48.4731 102.529 48.841C102.627 49.2087 102.576 49.6012 102.385 49.9319L101.859 39.4954ZM83.0158 59.0692L83.016 58.5691L83.0168 54.8295C83.0168 54.8295 83.0168 54.8294 83.0168 54.8294C83.0168 54.1955 82.6024 53.6371 81.9966 53.4538L81.9957 53.4535C80.5013 52.9981 79.1306 52.2055 77.99 51.1375L77.9892 51.1368C77.5285 50.7036 76.8381 50.6233 76.2898 50.9394L73.0467 52.8126L72.6137 53.0627L72.3636 52.6296L70.945 50.1727L70.695 49.7396L71.1281 49.4896L74.3689 47.619C74.369 47.619 74.369 47.6189 74.3691 47.6189C74.9175 47.3019 75.1936 46.6639 75.0494 46.048L75.0493 46.0476C74.6939 44.524 74.6939 42.9387 75.0493 41.4151C75.1929 40.799 74.9167 40.1623 74.3687 39.8453L71.1281 37.9748L70.695 37.7248L70.945 37.2917L72.3636 34.8348L72.6137 34.4017L73.0467 34.6518L76.2899 36.525C76.2899 36.525 76.2899 36.525 76.29 36.525C76.8381 36.841 77.5284 36.7608 77.9892 36.3276L77.99 36.3268C79.1308 35.2589 80.5013 34.4663 81.9957 34.0109L81.9966 34.0106C82.6024 33.8273 83.0168 33.2689 83.0168 32.6349V28.8935V28.3935H83.5168H86.3531H86.8531V28.8935V32.6349C86.8531 33.2684 87.2687 33.8277 87.8753 34.0104L87.8768 34.0109C89.3712 34.4663 90.7419 35.2589 91.8826 36.3268L91.8829 36.3271C92.3444 36.7599 93.0348 36.8393 93.5821 36.5227L93.5827 36.5224L96.8261 34.6517L97.259 34.402L97.5089 34.8348L98.9275 37.2917L99.1776 37.7248L98.7445 37.9748L95.5039 39.8452C94.9558 40.1623 94.6797 40.7991 94.8233 41.4152L94.8234 41.4159C95.176 42.939 95.176 44.5228 94.8234 46.0467L94.8232 46.048C94.6789 46.664 94.9551 47.3021 95.5037 47.619L98.7445 49.4896L99.1776 49.7396L98.9275 50.1727L97.5089 52.6296L97.2589 53.0627L96.8259 52.8125L93.5827 50.9394L83.0158 59.0692ZM83.0158 59.0692H83.516M83.0158 59.0692H83.516M83.516 59.0692H86.3531H86.8531M83.516 59.0692H86.8531M86.8531 59.0692V58.5692M86.8531 59.0692V58.5692M86.8531 58.5692V54.8269C86.8531 54.1934 87.2687 53.6341 87.8753 53.4514L87.8762 53.4511M86.8531 58.5692L87.8762 53.4511M87.8762 53.4511C89.3717 52.9974 90.7426 52.2056 91.8827 51.1374L91.8833 51.1368M87.8762 53.4511L91.8833 51.1368M91.8833 51.1368C92.3441 50.7036 93.0344 50.6234 93.5824 50.9392L91.8833 51.1368ZM78.3317 36.6919C77.7101 37.2762 76.7791 37.3843 76.0401 36.9581L78.3317 36.6919Z" fill="#6D95FC" stroke="black"/>
<path d="M79.9311 48.7367L79.9312 48.7368C81.2578 50.0642 83.0583 50.811 84.9353 50.8111L79.9311 48.7367ZM79.9311 48.7367C78.6037 47.4094 77.8585 45.6088 77.8594 43.7316V43.7314M79.9311 48.7367L77.8594 43.7314M77.8594 43.7314C77.8594 41.8541 78.6054 40.0535 79.9327 38.727C81.2611 37.3995 83.0609 36.6543 84.9382 36.6543C86.8154 36.6543 88.6161 37.4004 89.9436 38.7278C91.2708 40.055 92.016 41.8554 92.0161 43.7327C92.0145 45.6101 91.2676 47.4099 89.9401 48.7366L89.94 48.7367M77.8594 43.7314L89.94 48.7367M89.94 48.7367C88.6126 50.0642 86.8128 50.8102 84.9355 50.8111L89.94 48.7367ZM84.9351 39.5271L84.9355 39.5271C86.051 39.5271 87.1204 39.9696 87.91 40.7583L87.9102 40.7585C88.699 41.5473 89.1423 42.6166 89.1433 43.7328V43.7332C89.1433 44.8476 88.7009 45.9181 87.9117 46.7063C87.1231 47.4948 86.054 47.9382 84.9386 47.9383C84.9385 47.9383 84.9383 47.9383 84.9382 47.9383V47.4383L84.9351 39.5271ZM84.9351 39.5271C83.8198 39.5281 82.7504 39.9715 81.9624 40.7604M84.9351 39.5271L81.9624 40.7604M81.9624 40.7604C81.1737 41.5493 80.7312 42.6196 80.7321 43.7342L81.9624 40.7604Z" fill="#6D95FC" stroke="black"/>
<path d="M16.871 157.212C18.3217 156.06 18.983 155.527 18.855 155.612C23.0363 152.156 26.3217 149.319 28.711 147.1C31.143 144.882 33.191 142.556 34.855 140.124C36.519 137.692 37.351 135.324 37.351 133.02C37.351 131.271 36.9457 129.906 36.135 128.924C35.3243 127.943 34.1083 127.452 32.487 127.452C30.8657 127.452 29.5857 128.071 28.647 129.308C27.751 130.503 27.303 132.21 27.303 134.428H16.743C16.8283 130.802 17.5963 127.772 19.047 125.34C20.5403 122.908 22.4817 121.116 24.871 119.964C27.303 118.812 29.991 118.236 32.935 118.236C38.0123 118.236 41.831 119.538 44.391 122.14C46.9937 124.743 48.295 128.135 48.295 132.316C48.295 136.882 46.7377 141.127 43.623 145.052C40.5083 148.935 36.5403 152.732 31.719 156.444H48.999V165.34H16.871V157.212ZM53.8175 141.98C53.8175 134.642 55.2255 128.86 58.0415 124.636C60.9002 120.412 65.4868 118.3 71.8015 118.3C78.1162 118.3 82.6815 120.412 85.4975 124.636C88.3562 128.86 89.7855 134.642 89.7855 141.98C89.7855 149.404 88.3562 155.228 85.4975 159.452C82.6815 163.676 78.1162 165.788 71.8015 165.788C65.4868 165.788 60.9002 163.676 58.0415 159.452C55.2255 155.228 53.8175 149.404 53.8175 141.98ZM79.0335 141.98C79.0335 137.671 78.5642 134.364 77.6255 132.06C76.6868 129.714 74.7455 128.54 71.8015 128.54C68.8575 128.54 66.9162 129.714 65.9775 132.06C65.0388 134.364 64.5695 137.671 64.5695 141.98C64.5695 144.882 64.7402 147.292 65.0815 149.212C65.4228 151.09 66.1055 152.626 67.1295 153.82C68.1962 154.972 69.7535 155.548 71.8015 155.548C73.8495 155.548 75.3855 154.972 76.4095 153.82C77.4762 152.626 78.1802 151.09 78.5215 149.212C78.8628 147.292 79.0335 144.882 79.0335 141.98ZM95.5675 141.98C95.5675 134.642 96.9755 128.86 99.7915 124.636C102.65 120.412 107.237 118.3 113.552 118.3C119.866 118.3 124.432 120.412 127.248 124.636C130.106 128.86 131.536 134.642 131.536 141.98C131.536 149.404 130.106 155.228 127.248 159.452C124.432 163.676 119.866 165.788 113.552 165.788C107.237 165.788 102.65 163.676 99.7915 159.452C96.9755 155.228 95.5675 149.404 95.5675 141.98ZM120.784 141.98C120.784 137.671 120.314 134.364 119.376 132.06C118.437 129.714 116.496 128.54 113.552 128.54C110.608 128.54 108.666 129.714 107.728 132.06C106.789 134.364 106.32 137.671 106.32 141.98C106.32 144.882 106.49 147.292 106.832 149.212C107.173 151.09 107.856 152.626 108.88 153.82C109.946 154.972 111.504 155.548 113.552 155.548C115.6 155.548 117.136 154.972 118.16 153.82C119.226 152.626 119.93 151.09 120.272 149.212C120.613 147.292 120.784 144.882 120.784 141.98ZM170.854 148.508H159.718V159.9H149.35V148.508H138.214V138.716H149.35V127.26H159.718V138.716H170.854V148.508Z" fill="white"/>
<path d="M35.0838 188.627C35.0838 189.845 34.6638 190.86 33.8238 191.672C32.9978 192.47 31.7308 192.869 30.0228 192.869H27.2088V198.98H25.2978V184.343H30.0228C31.6748 184.343 32.9278 184.742 33.7818 185.54C34.6498 186.338 35.0838 187.367 35.0838 188.627ZM30.0228 191.294C31.0868 191.294 31.8708 191.063 32.3748 190.601C32.8788 190.139 33.1308 189.481 33.1308 188.627C33.1308 186.821 32.0948 185.918 30.0228 185.918H27.2088V191.294H30.0228ZM40.2099 189.341C40.5459 188.683 41.0219 188.172 41.6379 187.808C42.2679 187.444 43.0309 187.262 43.9269 187.262V189.236H43.4229C41.2809 189.236 40.2099 190.398 40.2099 192.722V198.98H38.2989V187.472H40.2099V189.341ZM51.9919 199.169C50.9139 199.169 49.9339 198.924 49.0519 198.434C48.1839 197.944 47.4979 197.251 46.9939 196.355C46.5039 195.445 46.2589 194.395 46.2589 193.205C46.2589 192.029 46.5109 190.993 47.0149 190.097C47.5329 189.187 48.2329 188.494 49.1149 188.018C49.9969 187.528 50.9839 187.283 52.0759 187.283C53.1679 187.283 54.1549 187.528 55.0369 188.018C55.9189 188.494 56.6119 189.18 57.1159 190.076C57.6339 190.972 57.8929 192.015 57.8929 193.205C57.8929 194.395 57.6269 195.445 57.0949 196.355C56.5769 197.251 55.8699 197.944 54.9739 198.434C54.0779 198.924 53.0839 199.169 51.9919 199.169ZM51.9919 197.489C52.6779 197.489 53.3219 197.328 53.9239 197.006C54.5259 196.684 55.0089 196.201 55.3729 195.557C55.7509 194.913 55.9399 194.129 55.9399 193.205C55.9399 192.281 55.7579 191.497 55.3939 190.853C55.0299 190.209 54.5539 189.733 53.9659 189.425C53.3779 189.103 52.7409 188.942 52.0549 188.942C51.3549 188.942 50.7109 189.103 50.1229 189.425C49.5489 189.733 49.0869 190.209 48.7369 190.853C48.3869 191.497 48.2119 192.281 48.2119 193.205C48.2119 194.143 48.3799 194.934 48.7159 195.578C49.0659 196.222 49.5279 196.705 50.1019 197.027C50.6759 197.335 51.3059 197.489 51.9919 197.489ZM62.2745 185.603C61.9105 185.603 61.6025 185.477 61.3505 185.225C61.1125 184.973 60.9935 184.665 60.9935 184.301C60.9935 183.937 61.1125 183.629 61.3505 183.377C61.6025 183.125 61.9105 182.999 62.2745 182.999C62.6385 182.999 62.9395 183.125 63.1775 183.377C63.4295 183.629 63.5555 183.937 63.5555 184.301C63.5555 184.665 63.4295 184.973 63.1775 185.225C62.9395 185.477 62.6385 185.603 62.2745 185.603ZM63.2195 201.479C63.2195 202.501 62.9605 203.25 62.4425 203.726C61.9245 204.202 61.1685 204.44 60.1745 204.44H59.0615V202.823H59.8595C60.3915 202.823 60.7625 202.718 60.9725 202.508C61.1965 202.298 61.3085 201.941 61.3085 201.437V187.472H63.2195V201.479ZM77.7945 192.785C77.7945 193.149 77.7735 193.534 77.7315 193.94H68.5335C68.6035 195.074 68.9885 195.963 69.6885 196.607C70.4025 197.237 71.2635 197.552 72.2715 197.552C73.0975 197.552 73.7835 197.363 74.3295 196.985C74.8895 196.593 75.2815 196.075 75.5055 195.431H77.5635C77.2555 196.537 76.6395 197.44 75.7155 198.14C74.7915 198.826 73.6435 199.169 72.2715 199.169C71.1795 199.169 70.1995 198.924 69.3315 198.434C68.4775 197.944 67.8055 197.251 67.3155 196.355C66.8255 195.445 66.5805 194.395 66.5805 193.205C66.5805 192.015 66.8185 190.972 67.2945 190.076C67.7705 189.18 68.4355 188.494 69.2895 188.018C70.1575 187.528 71.1515 187.283 72.2715 187.283C73.3635 187.283 74.3295 187.521 75.1695 187.997C76.0095 188.473 76.6535 189.131 77.1015 189.971C77.5635 190.797 77.7945 191.735 77.7945 192.785ZM75.8205 192.386C75.8205 191.658 75.6595 191.035 75.3375 190.517C75.0155 189.985 74.5745 189.586 74.0145 189.32C73.4685 189.04 72.8595 188.9 72.1875 188.9C71.2215 188.9 70.3955 189.208 69.7095 189.824C69.0375 190.44 68.6525 191.294 68.5545 192.386H75.8205ZM80.443 193.205C80.443 192.015 80.681 190.979 81.157 190.097C81.633 189.201 82.291 188.508 83.131 188.018C83.985 187.528 84.958 187.283 86.05 187.283C87.464 187.283 88.626 187.626 89.536 188.312C90.46 188.998 91.069 189.95 91.363 191.168H89.305C89.109 190.468 88.724 189.915 88.15 189.509C87.59 189.103 86.89 188.9 86.05 188.9C84.958 188.9 84.076 189.278 83.404 190.034C82.732 190.776 82.396 191.833 82.396 193.205C82.396 194.591 82.732 195.662 83.404 196.418C84.076 197.174 84.958 197.552 86.05 197.552C86.89 197.552 87.59 197.356 88.15 196.964C88.71 196.572 89.095 196.012 89.305 195.284H91.363C91.055 196.46 90.439 197.405 89.515 198.119C88.591 198.819 87.436 199.169 86.05 199.169C84.958 199.169 83.985 198.924 83.131 198.434C82.291 197.944 81.633 197.251 81.157 196.355C80.681 195.459 80.443 194.409 80.443 193.205ZM97.0838 189.047V195.83C97.0838 196.39 97.2028 196.789 97.4408 197.027C97.6788 197.251 98.0918 197.363 98.6798 197.363H100.087V198.98H98.3648C97.3008 198.98 96.5028 198.735 95.9708 198.245C95.4388 197.755 95.1728 196.95 95.1728 195.83V189.047H93.6818V187.472H95.1728V184.574H97.0838V187.472H100.087V189.047H97.0838ZM114.238 184.343C115.834 184.343 117.213 184.644 118.375 185.246C119.551 185.834 120.447 186.681 121.063 187.787C121.693 188.893 122.008 190.195 122.008 191.693C122.008 193.191 121.693 194.493 121.063 195.599C120.447 196.691 119.551 197.531 118.375 198.119C117.213 198.693 115.834 198.98 114.238 198.98H109.681V184.343H114.238ZM114.238 197.405C116.128 197.405 117.57 196.908 118.564 195.914C119.558 194.906 120.055 193.499 120.055 191.693C120.055 189.873 119.551 188.452 118.543 187.43C117.549 186.408 116.114 185.897 114.238 185.897H111.592V197.405H114.238ZM130.388 199.169C129.31 199.169 128.33 198.924 127.448 198.434C126.58 197.944 125.894 197.251 125.39 196.355C124.9 195.445 124.655 194.395 124.655 193.205C124.655 192.029 124.907 190.993 125.411 190.097C125.929 189.187 126.629 188.494 127.511 188.018C128.393 187.528 129.38 187.283 130.472 187.283C131.564 187.283 132.551 187.528 133.433 188.018C134.315 188.494 135.008 189.18 135.512 190.076C136.03 190.972 136.289 192.015 136.289 193.205C136.289 194.395 136.023 195.445 135.491 196.355C134.973 197.251 134.266 197.944 133.37 198.434C132.474 198.924 131.48 199.169 130.388 199.169ZM130.388 197.489C131.074 197.489 131.718 197.328 132.32 197.006C132.922 196.684 133.405 196.201 133.769 195.557C134.147 194.913 134.336 194.129 134.336 193.205C134.336 192.281 134.154 191.497 133.79 190.853C133.426 190.209 132.95 189.733 132.362 189.425C131.774 189.103 131.137 188.942 130.451 188.942C129.751 188.942 129.107 189.103 128.519 189.425C127.945 189.733 127.483 190.209 127.133 190.853C126.783 191.497 126.608 192.281 126.608 193.205C126.608 194.143 126.776 194.934 127.112 195.578C127.462 196.222 127.924 196.705 128.498 197.027C129.072 197.335 129.702 197.489 130.388 197.489ZM145.248 187.262C146.648 187.262 147.782 187.689 148.65 188.543C149.518 189.383 149.952 190.601 149.952 192.197V198.98H148.062V192.47C148.062 191.322 147.775 190.447 147.201 189.845C146.627 189.229 145.843 188.921 144.849 188.921C143.841 188.921 143.036 189.236 142.434 189.866C141.846 190.496 141.552 191.413 141.552 192.617V198.98H139.641V187.472H141.552V189.11C141.93 188.522 142.441 188.067 143.085 187.745C143.743 187.423 144.464 187.262 145.248 187.262ZM164.414 192.785C164.414 193.149 164.393 193.534 164.351 193.94H155.153C155.223 195.074 155.608 195.963 156.308 196.607C157.022 197.237 157.883 197.552 158.891 197.552C159.717 197.552 160.403 197.363 160.949 196.985C161.509 196.593 161.901 196.075 162.125 195.431H164.183C163.875 196.537 163.259 197.44 162.335 198.14C161.411 198.826 160.263 199.169 158.891 199.169C157.799 199.169 156.819 198.924 155.951 198.434C155.097 197.944 154.425 197.251 153.935 196.355C153.445 195.445 153.2 194.395 153.2 193.205C153.2 192.015 153.438 190.972 153.914 190.076C154.39 189.18 155.055 188.494 155.909 188.018C156.777 187.528 157.771 187.283 158.891 187.283C159.983 187.283 160.949 187.521 161.789 187.997C162.629 188.473 163.273 189.131 163.721 189.971C164.183 190.797 164.414 191.735 164.414 192.785ZM162.44 192.386C162.44 191.658 162.279 191.035 161.957 190.517C161.635 189.985 161.194 189.586 160.634 189.32C160.088 189.04 159.479 188.9 158.807 188.9C157.841 188.9 157.015 189.208 156.329 189.824C155.657 190.44 155.272 191.294 155.174 192.386H162.44Z" fill="#6D95FC"/>
</svg>
