<svg width="283" height="16" viewBox="0 0 283 16" fill="none" xmlns="http://www.w3.org/2000/svg">
<path d="M20.9001 0.404999L16.5741 15H13.8651L10.7991 3.954L7.54413 15L4.85613 15.021L0.719129 0.404999H3.26013L6.28413 12.291L9.56013 0.404999H12.2481L15.2931 12.228L18.3381 0.404999H20.9001ZM28.3136 2.337V6.621H33.3536V8.574H28.3136V13.047H33.9836V15H25.9196V0.383999H33.9836V2.337H28.3136ZM42.3713 13.068H47.3063V15H39.9773V0.404999H42.3713V13.068ZM51.5554 7.671C51.5554 6.243 51.8844 4.962 52.5424 3.828C53.2144 2.694 54.1174 1.812 55.2514 1.182C56.3994 0.537999 57.6524 0.215999 59.0104 0.215999C60.5644 0.215999 61.9434 0.600999 63.1474 1.371C64.3654 2.127 65.2474 3.205 65.7934 4.605H62.9164C62.5384 3.835 62.0134 3.261 61.3414 2.883C60.6694 2.505 59.8924 2.316 59.0104 2.316C58.0444 2.316 57.1834 2.533 56.4274 2.967C55.6714 3.401 55.0764 4.024 54.6424 4.836C54.2224 5.648 54.0124 6.593 54.0124 7.671C54.0124 8.749 54.2224 9.694 54.6424 10.506C55.0764 11.318 55.6714 11.948 56.4274 12.396C57.1834 12.83 58.0444 13.047 59.0104 13.047C59.8924 13.047 60.6694 12.858 61.3414 12.48C62.0134 12.102 62.5384 11.528 62.9164 10.758H65.7934C65.2474 12.158 64.3654 13.236 63.1474 13.992C61.9434 14.748 60.5644 15.126 59.0104 15.126C57.6384 15.126 56.3854 14.811 55.2514 14.181C54.1174 13.537 53.2144 12.648 52.5424 11.514C51.8844 10.38 51.5554 9.099 51.5554 7.671ZM78.2976 15.147C76.9396 15.147 75.6866 14.832 74.5386 14.202C73.4046 13.558 72.5016 12.669 71.8296 11.535C71.1716 10.387 70.8426 9.099 70.8426 7.671C70.8426 6.243 71.1716 4.962 71.8296 3.828C72.5016 2.694 73.4046 1.812 74.5386 1.182C75.6866 0.537999 76.9396 0.215999 78.2976 0.215999C79.6696 0.215999 80.9226 0.537999 82.0566 1.182C83.2046 1.812 84.1076 2.694 84.7656 3.828C85.4236 4.962 85.7526 6.243 85.7526 7.671C85.7526 9.099 85.4236 10.387 84.7656 11.535C84.1076 12.669 83.2046 13.558 82.0566 14.202C80.9226 14.832 79.6696 15.147 78.2976 15.147ZM78.2976 13.068C79.2636 13.068 80.1246 12.851 80.8806 12.417C81.6366 11.969 82.2246 11.339 82.6446 10.527C83.0786 9.701 83.2956 8.749 83.2956 7.671C83.2956 6.593 83.0786 5.648 82.6446 4.836C82.2246 4.024 81.6366 3.401 80.8806 2.967C80.1246 2.533 79.2636 2.316 78.2976 2.316C77.3316 2.316 76.4706 2.533 75.7146 2.967C74.9586 3.401 74.3636 4.024 73.9296 4.836C73.5096 5.648 73.2996 6.593 73.2996 7.671C73.2996 8.749 73.5096 9.701 73.9296 10.527C74.3636 11.339 74.9586 11.969 75.7146 12.417C76.4706 12.851 77.3316 13.068 78.2976 13.068ZM106.525 0.404999V15H104.131V5.004L99.6793 15H98.0203L93.5473 5.004V15H91.1533V0.404999H93.7363L98.8603 11.85L103.963 0.404999H106.525ZM115.111 2.337V6.621H120.151V8.574H115.111V13.047H120.781V15H112.717V0.383999H120.781V2.337H115.111ZM144.704 0.404999V2.358H140.819V15H138.425V2.358H134.519V0.404999H144.704ZM156.83 15.147C155.472 15.147 154.219 14.832 153.071 14.202C151.937 13.558 151.034 12.669 150.362 11.535C149.704 10.387 149.375 9.099 149.375 7.671C149.375 6.243 149.704 4.962 150.362 3.828C151.034 2.694 151.937 1.812 153.071 1.182C154.219 0.537999 155.472 0.215999 156.83 0.215999C158.202 0.215999 159.455 0.537999 160.589 1.182C161.737 1.812 162.64 2.694 163.298 3.828C163.956 4.962 164.285 6.243 164.285 7.671C164.285 9.099 163.956 10.387 163.298 11.535C162.64 12.669 161.737 13.558 160.589 14.202C159.455 14.832 158.202 15.147 156.83 15.147ZM156.83 13.068C157.796 13.068 158.657 12.851 159.413 12.417C160.169 11.969 160.757 11.339 161.177 10.527C161.611 9.701 161.828 8.749 161.828 7.671C161.828 6.593 161.611 5.648 161.177 4.836C160.757 4.024 160.169 3.401 159.413 2.967C158.657 2.533 157.796 2.316 156.83 2.316C155.864 2.316 155.003 2.533 154.247 2.967C153.491 3.401 152.896 4.024 152.462 4.836C152.042 5.648 151.832 6.593 151.832 7.671C151.832 8.749 152.042 9.701 152.462 10.527C152.896 11.339 153.491 11.969 154.247 12.417C155.003 12.851 155.864 13.068 156.83 13.068ZM177.388 7.671C177.388 6.243 177.717 4.962 178.375 3.828C179.047 2.694 179.95 1.812 181.084 1.182C182.232 0.537999 183.485 0.215999 184.843 0.215999C186.397 0.215999 187.776 0.600999 188.98 1.371C190.198 2.127 191.08 3.205 191.626 4.605H188.749C188.371 3.835 187.846 3.261 187.174 2.883C186.502 2.505 185.725 2.316 184.843 2.316C183.877 2.316 183.016 2.533 182.26 2.967C181.504 3.401 180.909 4.024 180.475 4.836C180.055 5.648 179.845 6.593 179.845 7.671C179.845 8.749 180.055 9.694 180.475 10.506C180.909 11.318 181.504 11.948 182.26 12.396C183.016 12.83 183.877 13.047 184.843 13.047C185.725 13.047 186.502 12.858 187.174 12.48C187.846 12.102 188.371 11.528 188.749 10.758H191.626C191.08 12.158 190.198 13.236 188.98 13.992C187.776 14.748 186.397 15.126 184.843 15.126C183.471 15.126 182.218 14.811 181.084 14.181C179.95 13.537 179.047 12.648 178.375 11.514C177.717 10.38 177.388 9.099 177.388 7.671ZM205.054 15L201.694 9.162H199.867V15H197.473V0.404999H202.513C203.633 0.404999 204.578 0.600999 205.348 0.992999C206.132 1.385 206.713 1.91 207.091 2.568C207.483 3.226 207.679 3.961 207.679 4.773C207.679 5.725 207.399 6.593 206.839 7.377C206.293 8.147 205.446 8.672 204.298 8.952L207.91 15H205.054ZM199.867 7.251H202.513C203.409 7.251 204.081 7.027 204.529 6.579C204.991 6.131 205.222 5.529 205.222 4.773C205.222 4.017 204.998 3.429 204.55 3.009C204.102 2.575 203.423 2.358 202.513 2.358H199.867V7.251ZM216.181 2.337V6.621H221.221V8.574H216.181V13.047H221.851V15H213.787V0.383999H221.851V2.337H216.181ZM236.643 12.018H230.532L229.482 15H226.983L232.212 0.383999H234.984L240.213 15H237.693L236.643 12.018ZM235.971 10.065L233.598 3.282L231.204 10.065H235.971ZM254.961 0.404999V2.358H251.076V15H248.682V2.358H244.776V0.404999H254.961ZM262.825 0.404999V15H260.431V0.404999H262.825ZM268.215 7.671C268.215 6.243 268.544 4.962 269.202 3.828C269.874 2.694 270.777 1.812 271.911 1.182C273.059 0.537999 274.312 0.215999 275.67 0.215999C277.224 0.215999 278.603 0.600999 279.807 1.371C281.025 2.127 281.907 3.205 282.453 4.605H279.576C279.198 3.835 278.673 3.261 278.001 2.883C277.329 2.505 276.552 2.316 275.67 2.316C274.704 2.316 273.843 2.533 273.087 2.967C272.331 3.401 271.736 4.024 271.302 4.836C270.882 5.648 270.672 6.593 270.672 7.671C270.672 8.749 270.882 9.694 271.302 10.506C271.736 11.318 272.331 11.948 273.087 12.396C273.843 12.83 274.704 13.047 275.67 13.047C276.552 13.047 277.329 12.858 278.001 12.48C278.673 12.102 279.198 11.528 279.576 10.758H282.453C281.907 12.158 281.025 13.236 279.807 13.992C278.603 14.748 277.224 15.126 275.67 15.126C274.298 15.126 273.045 14.811 271.911 14.181C270.777 13.537 269.874 12.648 269.202 11.514C268.544 10.38 268.215 9.099 268.215 7.671Z" fill="#6D95FC"/>
</svg>
